<?xml version="1.0" encoding="UTF-8"?>
<!DOCTYPE svg PUBLIC "-//W3C//DTD SVG 1.1//EN" "http://www.w3.org/Graphics/SVG/1.1/DTD/svg11.dtd">
<svg xmlns="http://www.w3.org/2000/svg" version="1.1" width="32px" height="32px" style="shape-rendering:geometricPrecision; text-rendering:geometricPrecision; image-rendering:optimizeQuality; fill-rule:evenodd; clip-rule:evenodd" xmlns:xlink="http://www.w3.org/1999/xlink">
<g><path style="opacity:0.96" fill="#2ca8e8" d="M 9.5,-0.5 C 13.5,-0.5 17.5,-0.5 21.5,-0.5C 25.8333,1.83333 29.1667,5.16667 31.5,9.5C 31.5,13.5 31.5,17.5 31.5,21.5C 30.8333,22.1667 30.1667,22.8333 29.5,23.5C 27.0521,22.5269 24.3854,22.1936 21.5,22.5C 21.5865,18.1434 21.9198,13.81 22.5,9.5C 16.644,11.0915 10.9773,13.2582 5.5,16C 10.3645,18.0162 14.5311,16.8495 18,12.5C 18.6667,13.1667 18.6667,13.8333 18,14.5C 12.2312,16.9894 12.0645,19.656 17.5,22.5C 11.9738,22.1786 6.64045,22.5119 1.5,23.5C 0.833333,22.8333 0.166667,22.1667 -0.5,21.5C -0.5,17.5 -0.5,13.5 -0.5,9.5C 1.83333,5.16667 5.16667,1.83333 9.5,-0.5 Z"/></g>
<g><path style="opacity:1" fill="#f5fafd" d="M 21.5,22.5 C 20.1667,23.8333 18.8333,23.8333 17.5,22.5C 12.0645,19.656 12.2312,16.9894 18,14.5C 18.6667,13.8333 18.6667,13.1667 18,12.5C 14.5311,16.8495 10.3645,18.0162 5.5,16C 10.9773,13.2582 16.644,11.0915 22.5,9.5C 21.9198,13.81 21.5865,18.1434 21.5,22.5 Z"/></g>
<g><path style="opacity:0.935" fill="#24a0dd" d="M 17.5,22.5 C 18.8333,23.8333 20.1667,23.8333 21.5,22.5C 24.3854,22.1936 27.0521,22.5269 29.5,23.5C 27.8271,27.1729 25.1604,29.8396 21.5,31.5C 17.5,31.5 13.5,31.5 9.5,31.5C 5.83959,29.8396 3.17292,27.1729 1.5,23.5C 6.64045,22.5119 11.9738,22.1786 17.5,22.5 Z"/></g>
</svg>
