<?xml version="1.0" encoding="UTF-8"?>
<svg version="1.1" xmlns="http://www.w3.org/2000/svg" width="32" height="32">
<path d="M0 0 C4.8846525 2.26787438 7.73212562 5.1153475 10 10 C10.75381535 15.5997712 10.77303575 20.33499991 8.375 25.5 C3.80134327 30.3143755 0.6912538 32.25156236 -6 32.5 C-12.6912538 32.25156236 -15.80134327 30.3143755 -20.375 25.5 C-22.77303575 20.33499991 -22.75381535 15.5997712 -22 10 C-17.52212837 0.3553534 -9.85292056 -1.32635469 0 0 Z " fill="#07AAF4" transform="translate(22,0)"/>
<path d="M0 0 C2.97 0 5.94 0 9 0 C6.41666667 10.33333333 6.41666667 10.33333333 2.875 14.5 C-1.11969741 16.58418995 -4.5833361 16.34640501 -9 16 C-9 15.34 -9 14.68 -9 14 C-8.01 14 -7.02 14 -6 14 C-6 13.34 -6 12.68 -6 12 C-6.99 11.67 -7.98 11.34 -9 11 C-9.80688405 7.05523353 -10.00000429 5.00001715 -9 1 C-5.04 2.98 -5.04 2.98 -1 5 C-0.67 3.35 -0.34 1.7 0 0 Z " fill="#F4FBFE" transform="translate(17,8)"/>
</svg>
