<?xml version="1.0" encoding="UTF-8"?>
<!DOCTYPE svg PUBLIC "-//W3C//DTD SVG 1.1//EN" "http://www.w3.org/Graphics/SVG/1.1/DTD/svg11.dtd">
<svg xmlns="http://www.w3.org/2000/svg" version="1.1" width="32px" height="32px" style="shape-rendering:geometricPrecision; text-rendering:geometricPrecision; image-rendering:optimizeQuality; fill-rule:evenodd; clip-rule:evenodd" xmlns:xlink="http://www.w3.org/1999/xlink">
<g><path style="opacity:0.488" fill="#4a91fe" d="M 12.5,-0.5 C 14.5,-0.5 16.5,-0.5 18.5,-0.5C 19.937,0.72549 21.6036,1.72549 23.5,2.5C 24.7195,7.18326 24.7195,11.8499 23.5,16.5C 22.8333,16.5 22.5,16.8333 22.5,17.5C 21.5084,17.3284 20.8417,17.6618 20.5,18.5C 19.8333,18.5 19.5,18.8333 19.5,19.5C 18.8333,19.5 18.5,19.8333 18.5,20.5C 16.5,21.8333 14.5,21.8333 12.5,20.5C 12.5,19.8333 12.1667,19.5 11.5,19.5C 11.5,18.8333 11.1667,18.5 10.5,18.5C 10.1583,17.6618 9.49162,17.3284 8.5,17.5C 8.5,16.8333 8.16667,16.5 7.5,16.5C 6.28049,11.8499 6.28049,7.18326 7.5,2.5C 9.39635,1.72549 11.063,0.72549 12.5,-0.5 Z"/></g>
<g><path style="opacity:1" fill="#bfd7fe" d="M 18.5,2.5 C 16.5,2.5 14.5,2.5 12.5,2.5C 14.5,-0.166667 16.5,-0.166667 18.5,2.5 Z"/></g>
<g><path style="opacity:1" fill="#a5c3f8" d="M 19.5,5.5 C 20.9862,8.95516 20.6528,12.2885 18.5,15.5C 19.4916,15.3284 20.1583,15.6618 20.5,16.5C 16.1465,20.5188 12.4799,19.8521 9.5,14.5C 10.2389,14.631 10.9056,14.4643 11.5,14C 10.1667,11 10.1667,8 11.5,5C 14.413,2.90889 17.0797,3.07556 19.5,5.5 Z"/></g>
<g><path style="opacity:1" fill="#6aa2fd" d="M 12.5,2.5 C 14.5,2.5 16.5,2.5 18.5,2.5C 19.172,3.26739 20.0053,3.93406 21,4.5C 21.1787,8.02523 21.6787,11.3586 22.5,14.5C 22.1667,15.5 21.5,16.1667 20.5,16.5C 20.1583,15.6618 19.4916,15.3284 18.5,15.5C 20.6528,12.2885 20.9862,8.95516 19.5,5.5C 17.0797,3.07556 14.413,2.90889 11.5,5C 10.1667,8 10.1667,11 11.5,14C 10.9056,14.4643 10.2389,14.631 9.5,14.5C 9.33499,11.1501 9.50166,7.81677 10,4.5C 10.9947,3.93406 11.828,3.26739 12.5,2.5 Z"/></g>
<g><path style="opacity:1" fill="#b4d1ff" d="M 12.5,2.5 C 11.828,3.26739 10.9947,3.93406 10,4.5C 9.50166,7.81677 9.33499,11.1501 9.5,14.5C 8.88258,14.3893 8.38258,14.056 8,13.5C 7.17638,10.1177 7.34305,6.78437 8.5,3.5C 9.73619,2.75415 11.0695,2.42082 12.5,2.5 Z"/></g>
<g><path style="opacity:1" fill="#accafe" d="M 18.5,2.5 C 19.9305,2.42082 21.2638,2.75415 22.5,3.5C 23.7582,7.21035 23.7582,10.877 22.5,14.5C 21.6787,11.3586 21.1787,8.02523 21,4.5C 20.0053,3.93406 19.172,3.26739 18.5,2.5 Z"/></g>
<g><path style="opacity:1" fill="#659ffc" d="M 19.5,5.5 C 18.3559,8.44663 16.6893,11.1133 14.5,13.5C 11.1359,11.4407 10.9692,10.774 14,11.5C 15.617,9.23682 17.4503,7.23682 19.5,5.5 Z"/></g>
<g><path style="opacity:0.984" fill="#5295fe" d="M 31.5,13.5 C 31.5,15.1667 31.5,16.8333 31.5,18.5C 30.1692,21.1267 28.3358,23.46 26,25.5C 25.5045,27.4727 25.3379,29.4727 25.5,31.5C 22.5,31.5 19.5,31.5 16.5,31.5C 16.2422,27.6279 16.9089,23.9612 18.5,20.5C 19.1667,20.5 19.5,20.1667 19.5,19.5C 20.1667,19.5 20.5,19.1667 20.5,18.5C 21.4916,18.6716 22.1583,18.3382 22.5,17.5C 23.1667,17.5 23.5,17.1667 23.5,16.5C 26.0104,15.2166 28.6771,14.2166 31.5,13.5 Z"/></g>
<g><path style="opacity:0.565" fill="#5396fe" d="M -0.5,13.5 C 2.32293,14.2166 4.9896,15.2166 7.5,16.5C 8.16667,16.5 8.5,16.8333 8.5,17.5C 8.84171,18.3382 9.50838,18.6716 10.5,18.5C 11.1667,18.5 11.5,18.8333 11.5,19.5C 12.1667,19.5 12.5,19.8333 12.5,20.5C 14.0911,23.9612 14.7578,27.6279 14.5,31.5C 11.5,31.5 8.5,31.5 5.5,31.5C 5.66212,29.4727 5.49546,27.4727 5,25.5C 3.19784,24.2107 2.03118,22.5441 1.5,20.5C 1.43456,20.0618 1.60123,19.7284 2,19.5C 4.16933,23.1905 7.336,24.8571 11.5,24.5C 11.2002,21.482 9.5335,19.482 6.5,18.5C 6.16667,18.6667 5.83333,18.8333 5.5,19C 7.00744,19.8373 7.50744,21.0039 7,22.5C 4.51335,20.1911 2.51335,17.5244 1,14.5C 0.721579,15.4158 0.221579,16.0825 -0.5,16.5C -0.5,15.5 -0.5,14.5 -0.5,13.5 Z"/></g>
<g><path style="opacity:1" fill="#64a0fd" d="M 18.5,15.5 C 16.7724,17.9238 14.7724,18.0904 12.5,16C 14.5005,16.7925 16.5005,16.6259 18.5,15.5 Z"/></g>
<g><path style="opacity:1" fill="#dfe8fd" d="M 1.5,20.5 C 0.833333,19.8333 0.166667,19.1667 -0.5,18.5C -0.5,17.8333 -0.5,17.1667 -0.5,16.5C 0.221579,16.0825 0.721579,15.4158 1,14.5C 2.51335,17.5244 4.51335,20.1911 7,22.5C 7.50744,21.0039 7.00744,19.8373 5.5,19C 5.83333,18.8333 6.16667,18.6667 6.5,18.5C 9.5335,19.482 11.2002,21.482 11.5,24.5C 7.336,24.8571 4.16933,23.1905 2,19.5C 1.60123,19.7284 1.43456,20.0618 1.5,20.5 Z"/></g>
<g><path style="opacity:1" fill="#d7e2fc" d="M 29.5,14.5 C 29.7017,18.2569 28.0351,21.4235 24.5,24C 22.8659,24.4935 21.1992,24.6602 19.5,24.5C 19.7998,21.482 21.4665,19.482 24.5,18.5C 24.8333,18.6667 25.1667,18.8333 25.5,19C 23.9926,19.8373 23.4926,21.0039 24,22.5C 26.5842,20.3257 28.4176,17.659 29.5,14.5 Z"/></g>
<g><path style="opacity:1" fill="#acc8f8" d="M 6.5,26.5 C 8.5,26.5 10.5,26.5 12.5,26.5C 12.5,27.8333 12.5,29.1667 12.5,30.5C 10.5,30.5 8.5,30.5 6.5,30.5C 6.5,29.1667 6.5,27.8333 6.5,26.5 Z"/></g>
<g><path style="opacity:1" fill="#a3c1f7" d="M 18.5,26.5 C 20.1667,26.5 21.8333,26.5 23.5,26.5C 23.5,27.8333 23.5,29.1667 23.5,30.5C 21.8333,30.5 20.1667,30.5 18.5,30.5C 18.5,29.1667 18.5,27.8333 18.5,26.5 Z"/></g>
</svg>
