<?xml version="1.0" encoding="UTF-8"?>
<!DOCTYPE svg PUBLIC "-//W3C//DTD SVG 1.1//EN" "http://www.w3.org/Graphics/SVG/1.1/DTD/svg11.dtd">
<svg xmlns="http://www.w3.org/2000/svg" version="1.1" width="32px" height="32px" style="shape-rendering:geometricPrecision; text-rendering:geometricPrecision; image-rendering:optimizeQuality; fill-rule:evenodd; clip-rule:evenodd" xmlns:xlink="http://www.w3.org/1999/xlink">
<g><path style="opacity:0.481" fill="#000000" d="M 9.5,-0.5 C 13.5,-0.5 17.5,-0.5 21.5,-0.5C 25.8333,1.83333 29.1667,5.16667 31.5,9.5C 31.5,13.5 31.5,17.5 31.5,21.5C 29.1667,25.8333 25.8333,29.1667 21.5,31.5C 17.5,31.5 13.5,31.5 9.5,31.5C 5.16667,29.1667 1.83333,25.8333 -0.5,21.5C -0.5,17.5 -0.5,13.5 -0.5,9.5C 1.83333,5.16667 5.16667,1.83333 9.5,-0.5 Z M 10.5,1.5 C 24.6523,0.151481 30.8189,6.48481 29,20.5C 23.1346,30.2464 15.3013,32.0798 5.5,26C -1.09378,16.0145 0.572884,7.84783 10.5,1.5 Z M 7.5,7.5 C 11.5,7.5 15.5,7.5 19.5,7.5C 19.5294,10.7732 18.1961,11.4398 15.5,9.5C 9.92579,10.9826 8.42579,14.3159 11,19.5C 16.2668,22.7828 19.7668,21.4495 21.5,15.5C 19.5602,12.8039 20.2268,11.4706 23.5,11.5C 23.5,15.5 23.5,19.5 23.5,23.5C 18.1667,23.5 12.8333,23.5 7.5,23.5C 7.5,18.1667 7.5,12.8333 7.5,7.5 Z M 14.5,11.5 C 20.532,13.5435 20.8653,16.2102 15.5,19.5C 10.6907,17.2575 10.3574,14.5908 14.5,11.5 Z"/></g>
<g><path style="opacity:0.492" fill="#000000" d="M 6.5,5.5 C 12.7576,5.19031 18.9242,5.52364 25,6.5C 25.8087,12.7489 25.642,18.9156 24.5,25C 18.2511,25.8087 12.0844,25.642 6,24.5C 5.20983,18.0853 5.37649,11.752 6.5,5.5 Z M 7.5,7.5 C 7.5,12.8333 7.5,18.1667 7.5,23.5C 12.8333,23.5 18.1667,23.5 23.5,23.5C 23.5,19.5 23.5,15.5 23.5,11.5C 20.2268,11.4706 19.5602,12.8039 21.5,15.5C 19.7668,21.4495 16.2668,22.7828 11,19.5C 8.42579,14.3159 9.92579,10.9826 15.5,9.5C 18.1961,11.4398 19.5294,10.7732 19.5,7.5C 15.5,7.5 11.5,7.5 7.5,7.5 Z M 14.5,11.5 C 10.3574,14.5908 10.6907,17.2575 15.5,19.5C 20.8653,16.2102 20.532,13.5435 14.5,11.5 Z"/></g>
</svg>
