<?xml version="1.0" encoding="UTF-8"?>
<svg version="1.1" xmlns="http://www.w3.org/2000/svg" width="32" height="32">
<path d="M0 0 C0.804375 -0.00128906 1.60875 -0.00257813 2.4375 -0.00390625 C3.283125 -0.00003906 4.12875 0.00382813 5 0.0078125 C6.2684375 0.00201172 6.2684375 0.00201172 7.5625 -0.00390625 C8.366875 -0.00261719 9.17125 -0.00132812 10 0 C10.7425 0.00112793 11.485 0.00225586 12.25 0.00341797 C14 0.1328125 14 0.1328125 15 1.1328125 C15.0983721 2.46324875 15.13078592 3.79874594 15.1328125 5.1328125 C15.13474609 6.339375 15.13474609 6.339375 15.13671875 7.5703125 C15.13285156 8.4159375 15.12898438 9.2615625 15.125 10.1328125 C15.13080078 11.40125 15.13080078 11.40125 15.13671875 12.6953125 C15.13542969 13.4996875 15.13414063 14.3040625 15.1328125 15.1328125 C15.13168457 15.8753125 15.13055664 16.6178125 15.12939453 17.3828125 C15 19.1328125 15 19.1328125 14 20.1328125 C12.66956375 20.2311846 11.33406656 20.26359842 10 20.265625 C9.195625 20.26691406 8.39125 20.26820312 7.5625 20.26953125 C6.716875 20.26566406 5.87125 20.26179688 5 20.2578125 C4.154375 20.26167969 3.30875 20.26554687 2.4375 20.26953125 C1.633125 20.26824219 0.82875 20.26695313 0 20.265625 C-0.7425 20.26449707 -1.485 20.26336914 -2.25 20.26220703 C-4 20.1328125 -4 20.1328125 -5 19.1328125 C-5.0983721 17.80237625 -5.13078592 16.46687906 -5.1328125 15.1328125 C-5.13410156 14.3284375 -5.13539063 13.5240625 -5.13671875 12.6953125 C-5.13285156 11.8496875 -5.12898437 11.0040625 -5.125 10.1328125 C-5.12886719 9.2871875 -5.13273438 8.4415625 -5.13671875 7.5703125 C-5.13542969 6.7659375 -5.13414062 5.9615625 -5.1328125 5.1328125 C-5.13168457 4.3903125 -5.13055664 3.6478125 -5.12939453 2.8828125 C-4.87704063 -0.53015494 -2.94665813 0.00447626 0 0 Z M-3 2.1328125 C-3 7.4128125 -3 12.6928125 -3 18.1328125 C2.28 18.1328125 7.56 18.1328125 13 18.1328125 C13 14.1728125 13 10.2128125 13 6.1328125 C12.01 6.1328125 11.02 6.1328125 10 6.1328125 C10.061875 7.0609375 10.12375 7.9890625 10.1875 8.9453125 C10 12.1328125 10 12.1328125 8.875 14.0703125 C6.07329973 15.65794265 4.03014356 14.87351426 1 14.1328125 C-0.3260274 8.70815497 -0.3260274 8.70815497 1.0625 6.2578125 C3.75900247 4.69210139 5.94130459 4.92889947 9 5.1328125 C9 4.1428125 9 3.1528125 9 2.1328125 C5.04 2.1328125 1.08 2.1328125 -3 2.1328125 Z M2.1875 7.3203125 C0.74709672 9.08335359 0.74709672 9.08335359 1.3125 11.3203125 C1.539375 11.9184375 1.76625 12.5165625 2 13.1328125 C3.83700789 13.90523519 3.83700789 13.90523519 6 14.1328125 C7.91666667 13.04947917 7.91666667 13.04947917 9 11.1328125 C8.77242269 8.96982039 8.77242269 8.96982039 8 7.1328125 C4.99251085 5.97418944 4.99251085 5.97418944 2.1875 7.3203125 Z " fill="#000000" transform="translate(11,5.8671875)"/>
<path d="M0 0 C4.8846525 2.26787438 7.73212562 5.1153475 10 10 C10.75381535 15.5997712 10.77303575 20.33499991 8.375 25.5 C3.80134327 30.3143755 0.6912538 32.25156236 -6 32.5 C-12.6912538 32.25156236 -15.80134327 30.3143755 -20.375 25.5 C-22.77303575 20.33499991 -22.75381535 15.5997712 -22 10 C-17.52212837 0.3553534 -9.85292056 -1.32635469 0 0 Z M-18.875 8.125 C-20.56484251 12.44348642 -20.65960983 16.4267052 -20 21 C-17.83701163 25.40608743 -15.60319521 28.1987497 -11 30 C-5.95674616 30.68426057 -2.16923116 30.5739862 2.4375 28.3125 C5.79656012 25.28115306 7.69355631 23.25860352 8.31640625 18.66796875 C8.58213652 12.95048191 7.96847152 9.39749547 4 5 C0.16286804 1.61429533 -3.63401462 1.48708828 -8.5625 1.6484375 C-13.22526146 2.32095117 -15.85190292 4.69882331 -18.875 8.125 Z " fill="#000000" transform="translate(22,0)"/>
</svg>
