<?xml version="1.0" encoding="UTF-8"?>
<svg version="1.1" xmlns="http://www.w3.org/2000/svg" width="32" height="32">
<path d="M0 0 C4.8846525 2.26787438 7.73212562 5.1153475 10 10 C10.75381535 15.5997712 10.77303575 20.33499991 8.375 25.5 C3.80134327 30.3143755 0.6912538 32.25156236 -6 32.5 C-12.6912538 32.25156236 -15.80134327 30.3143755 -20.375 25.5 C-22.77303575 20.33499991 -22.75381535 15.5997712 -22 10 C-17.52212837 0.3553534 -9.85292056 -1.32635469 0 0 Z " fill="#067CBA" transform="translate(22,0)"/>
<path d="M0 0 C1.423125 -0.061875 2.84625 -0.12375 4.3125 -0.1875 C5.51326172 -0.23970703 5.51326172 -0.23970703 6.73828125 -0.29296875 C9 0 9 0 10.78125 1.21875 C12.35672932 3.52137362 12.30765272 4.92398744 12.1875 7.6875 C12.16042969 8.49574219 12.13335937 9.30398437 12.10546875 10.13671875 C12.07066406 10.75160156 12.03585938 11.36648437 12 12 C10.68 12 9.36 12 8 12 C7.67 9.36 7.34 6.72 7 4 C6.34 4 5.68 4 5 4 C4.67 6.64 4.34 9.28 4 12 C2.68 12 1.36 12 0 12 C0 8.04 0 4.08 0 0 Z " fill="#CEE0E9" transform="translate(14,12)"/>
<path d="M0 0 C1.32 0 2.64 0 4 0 C4 3.96 4 7.92 4 12 C2.68 12 1.36 12 0 12 C0 8.04 0 4.08 0 0 Z " fill="#DAE6EC" transform="translate(8,12)"/>
<path d="M0 0 C1.32 0.33 2.64 0.66 4 1 C5.6415049 4.2830098 4.51888624 7.42545033 4 11 C2.68 11 1.36 11 0 11 C0 7.37 0 3.74 0 0 Z " fill="#E1EAEE" transform="translate(14,13)"/>
</svg>
