<?xml version="1.0" encoding="UTF-8"?>
<!DOCTYPE svg PUBLIC "-//W3C//DTD SVG 1.1//EN" "http://www.w3.org/Graphics/SVG/1.1/DTD/svg11.dtd">
<svg xmlns="http://www.w3.org/2000/svg" version="1.1" width="32px" height="32px" style="shape-rendering:geometricPrecision; text-rendering:geometricPrecision; image-rendering:optimizeQuality; fill-rule:evenodd; clip-rule:evenodd" xmlns:xlink="http://www.w3.org/1999/xlink">
<g><path style="opacity:0.951" fill="#047bb9" d="M 9.5,-0.5 C 13.5,-0.5 17.5,-0.5 21.5,-0.5C 25.8333,1.83333 29.1667,5.16667 31.5,9.5C 31.5,13.5 31.5,17.5 31.5,21.5C 29.1667,25.8333 25.8333,29.1667 21.5,31.5C 17.5,31.5 13.5,31.5 9.5,31.5C 5.16667,29.1667 1.83333,25.8333 -0.5,21.5C -0.5,17.5 -0.5,13.5 -0.5,9.5C 1.83333,5.16667 5.16667,1.83333 9.5,-0.5 Z"/></g>
<g><path style="opacity:1" fill="#d6e4eb" d="M 7.5,6.5 C 10.1662,6.06577 11.3329,7.06577 11,9.5C 8.34223,10.694 7.17556,9.69403 7.5,6.5 Z"/></g>
<g><path style="opacity:1" fill="#f0f2f1" d="M 7.5,12.5 C 8.5,12.5 9.5,12.5 10.5,12.5C 10.5,15.8333 10.5,19.1667 10.5,22.5C 9.5,22.5 8.5,22.5 7.5,22.5C 7.5,19.1667 7.5,15.8333 7.5,12.5 Z"/></g>
<g><path style="opacity:1" fill="#b7d4e4" d="M 7.5,12.5 C 8.56764,11.5655 9.90097,11.2322 11.5,11.5C 11.5,15.5 11.5,19.5 11.5,23.5C 9.90097,23.7678 8.56764,23.4345 7.5,22.5C 8.5,22.5 9.5,22.5 10.5,22.5C 10.5,19.1667 10.5,15.8333 10.5,12.5C 9.5,12.5 8.5,12.5 7.5,12.5 Z"/></g>
<g><path style="opacity:1" fill="#d9e5ec" d="M 13.5,11.5 C 16.4887,12.6355 19.4887,12.8021 22.5,12C 23.3333,12.8333 24.1667,13.6667 25,14.5C 25.498,17.4816 25.6646,20.4816 25.5,23.5C 24.1667,23.5 22.8333,23.5 21.5,23.5C 21.6641,20.8127 21.4974,18.146 21,15.5C 20,14.1667 19,14.1667 18,15.5C 17.5026,18.146 17.3359,20.8127 17.5,23.5C 16.1667,23.5 14.8333,23.5 13.5,23.5C 13.5,19.5 13.5,15.5 13.5,11.5 Z"/></g>
</svg>
