<svg id="Layer_1" data-name="Layer 1" xmlns="http://www.w3.org/2000/svg" viewBox="0 0 512 512"><defs><style>.cls-1,.cls-3,.cls-4,.cls-5{fill:#2980b9;}.cls-2{fill:#fff;}.cls-2,.cls-3,.cls-4,.cls-5{stroke:#231f20;stroke-miterlimit:10;}.cls-3{stroke-width:2px;}.cls-4{stroke-width:4px;}.cls-5{stroke-width:3px;}</style></defs><title>robika</title><path class="cls-1" d="M256,0h0C397.38,0,512,114.62,512,256h0c0,141.38-114.62,256-256,256h0C114.62,512,0,397.38,0,256H0C0,114.62,114.62,0,256,0Z"/><path class="cls-2" d="M254.93,76h1.17c.32,28.3-.17,85.05-.17,85.05-27.05-15.18-54.29-30-81.33-45.22q26.57-15.11,53.18-30.13c8.4-4.74,17.43-8.82,27.15-9.7Z"/><path class="cls-2" d="M256,76h2c10.52.95,20,6,29.09,11q25.32,14.28,50.58,28.68c-27.15,15-54.6,30.34-81.78,45.35-.23-28.3.41-56.8.1-85.09Z"/><path class="cls-2" d="M174.62,115.82,256,161l-81.9,47.85s0-30.36.06-45.5C174,147.66,174.62,115.82,174.62,115.82Z"/><path class="cls-2" d="M337.78,115.74l.23.13c-.06,28.2,0,56.4,0,84.6,0,2.76-.07,8.46-.07,8.46l-82-47.86s54.68-30.26,81.85-45.33Z"/><path class="cls-2" d="M338,115.88c18.06,10.27,36,20.77,53.94,31.23,8.68,4.88,17.88,10.28,22.62,19.46C389.1,180.65,337.91,209,337.91,209s0-5.7,0-8.46v-84.6Z"/><path class="cls-2" d="M122.79,145.54c17-9.93,51.77-29.72,51.77-29.72l-.46,93.06s-51-28.11-76.33-42.15C103.29,156.88,113.26,150.91,122.79,145.54Z"/><path class="cls-3" d="M255.88,161.06l82,47.87s-26.38,14.57-39.48,21.61c-14,8-42.43,23.72-42.43,23.72l-81.88-45.38Z"/><path class="cls-2" d="M92,203.81c.07-12.47-.15-25.73,5.73-37.08,25.39,14,76.32,42.15,76.32,42.15C146.66,224.72,119.4,240.79,92,256.65Z"/><path class="cls-2" d="M414.51,166.57c5,9.34,5.72,20.2,5.44,30.59v59.66l-82-47.87Z"/><path class="cls-4" d="M174.05,208.88c.13,0,81.88,45.38,81.88,45.38s0,47.47,0,70.69c.13,7.48,0,22.59,0,22.59-27.32-15.09-54.5-30.3-81.84-45.39l0-.2V208.88Z"/><path class="cls-2" d="M92,256.65c27.38-15.89,54.64-31.93,82-47.77q0,46.55,0,93.07c-4.2-1.76-8-4.26-12-6.38-23.31-12.83-46.56-25.95-70-38.65Z"/><path class="cls-5" d="M337.91,209V266c-.08,12.1.31,24.15,0,36.24-27.28,14.83-82,45.29-82,45.29s.18-15.11,0-22.59c0-23.22,0-70.69,0-70.69Z"/><path class="cls-2" d="M337.91,209s82,47.76,82,47.87c-27.26,15.11-82,45.43-82,45.43.3-12.09-.09-24.14,0-36.24V209Z"/><path class="cls-2" d="M92,256.92c23.41,12.72,46.63,25.82,70,38.67,4,2.12,7.84,4.63,12,6.38l.05.2-75.46,44c-2.65-4-4-8.73-4.94-13.41C92.09,325,92,317,92,309.09V256.91Z"/><path class="cls-2" d="M419.94,256.82c0,18.31,0,36.62,0,54.93.26,11.74-.08,24.25-6.34,34.6-22.64-13.25-75.7-44.1-75.7-44.1S392.68,271.93,419.94,256.82Z"/><path class="cls-2" d="M98.62,346.17q37.74-22,75.48-44c-.16,31,.06,62-.1,93q-26.72-15.06-53.3-30.37C112.41,359.91,103.92,354.46,98.62,346.17Z"/><path class="cls-2" d="M174.09,302.15c27.34,15.09,54.52,30.3,81.84,45.39C228.65,363.43,174,395.21,174,395.18,174.15,364.18,173.93,333.16,174.09,302.15Z"/><path class="cls-2" d="M337.79,302.31l.13-.06c.08,31-.17,62,.13,93.05l-.21.1c-21.63-12.92-43.51-25.43-65.23-38.2-5.47-3.11-16.68-9.66-16.68-9.66S310.51,317.17,337.79,302.31Z"/><path class="cls-2" d="M337.92,302.25c2.42,1.65,53.06,30.87,75.7,44.1-3.22,5.49-8.32,9.52-13.45,13.13-8.29,5.58-17.14,10.25-25.76,15.26-12.12,6.86-24.17,13.85-36.36,20.53-.3-31-.05-62-.13-93Z"/><path class="cls-2" d="M255.93,347.54v88c-6.78-1-14.18-2.57-20.19-6-20.58-11.43-41.23-22.79-61.75-34.37C201.25,379.27,228.65,363.46,255.93,347.54Z"/><path class="cls-2" d="M255.93,347.54s11.21,6.55,16.68,9.66c21.72,12.77,43.6,25.28,65.23,38.2q-31.65,17.5-63.28,35.09a41.29,41.29,0,0,1-17.13,5.07h-1.5Z"/></svg>