<?xml version="1.0" encoding="UTF-8"?>
<!DOCTYPE svg PUBLIC "-//W3C//DTD SVG 1.1//EN" "http://www.w3.org/Graphics/SVG/1.1/DTD/svg11.dtd">
<svg xmlns="http://www.w3.org/2000/svg" version="1.1" width="32px" height="32px" style="shape-rendering:geometricPrecision; text-rendering:geometricPrecision; image-rendering:optimizeQuality; fill-rule:evenodd; clip-rule:evenodd" xmlns:xlink="http://www.w3.org/1999/xlink">
<g><path style="opacity:0.961" fill="#30d46b" d="M 9.5,-0.5 C 13.5,-0.5 17.5,-0.5 21.5,-0.5C 25.8333,1.83333 29.1667,5.16667 31.5,9.5C 31.5,13.5 31.5,17.5 31.5,21.5C 29.1667,25.8333 25.8333,29.1667 21.5,31.5C 17.5,31.5 13.5,31.5 9.5,31.5C 5.16667,29.1667 1.83333,25.8333 -0.5,21.5C -0.5,17.5 -0.5,13.5 -0.5,9.5C 1.83333,5.16667 5.16667,1.83333 9.5,-0.5 Z"/></g>
<g><path style="opacity:1" fill="#eefbf3" d="M 11.5,5.5 C 22.54,4.7039 27.04,9.7039 25,20.5C 23.4571,22.3783 21.6238,23.8783 19.5,25C 14.7649,24.9815 10.0982,25.1482 5.5,25.5C 5.85181,20.9018 6.01848,16.2351 6,11.5C 7.35968,8.97739 9.19301,6.97739 11.5,5.5 Z"/></g>
<g><path style="opacity:1" fill="#3dd672" d="M 12.5,6.5 C 22.3581,6.51483 25.8581,11.1815 23,20.5C 18.4403,24.8106 13.2736,25.6439 7.5,23C 8.02186,22.4387 8.3552,21.772 8.5,21C 6.83601,18.3492 6.33601,15.5159 7,12.5C 8.35968,9.97739 10.193,7.97739 12.5,6.5 Z"/></g>
<g><path style="opacity:1" fill="#effbf3" d="M 11.5,10.5 C 13.13,12.0261 13.9633,14.0261 14,16.5C 16.1474,17.1125 18.314,17.7792 20.5,18.5C 18.8244,20.9212 16.8244,21.0879 14.5,19C 10.7982,16.9969 9.79819,14.1635 11.5,10.5 Z"/></g>
</svg>
