<?xml version="1.0" encoding="UTF-8"?>
<svg version="1.1" xmlns="http://www.w3.org/2000/svg" width="32" height="32">
<path d="M0 0 C4.8846525 2.26787438 7.73212562 5.1153475 10 10 C10.75381535 15.5997712 10.77303575 20.33499991 8.375 25.5 C3.80134327 30.3143755 0.6912538 32.25156236 -6 32.5 C-12.6912538 32.25156236 -15.80134327 30.3143755 -20.375 25.5 C-22.77303575 20.33499991 -22.75381535 15.5997712 -22 10 C-17.52212837 0.3553534 -9.85292056 -1.32635469 0 0 Z " fill="#2AD46A" transform="translate(22,0)"/>
<path d="M0 0 C2.3828125 0.47265625 2.3828125 0.47265625 5.5078125 2.41015625 C8.0670402 6.59022815 8.34549574 9.70109584 7.3828125 14.47265625 C5.38837836 19.01996608 5.38837836 19.01996608 2.3828125 20.47265625 C-2.67030333 20.97259218 -7.55848224 20.81626642 -12.6171875 20.47265625 C-12.75290905 18.0749088 -12.85155618 15.6849038 -12.9296875 13.28515625 C-12.97158203 12.61162109 -13.01347656 11.93808594 -13.05664062 11.24414062 C-13.15084991 7.38155977 -12.74566826 5.64434293 -10.41015625 2.5234375 C-6.67410361 -0.21981794 -4.4943889 -0.26161368 0 0 Z " fill="#35D671" transform="translate(18.6171875,5.52734375)"/>
<path d="M0 0 C2.3828125 0.47265625 2.3828125 0.47265625 5.5078125 2.41015625 C8.0670402 6.59022815 8.34549574 9.70109584 7.3828125 14.47265625 C5.38837836 19.01996608 5.38837836 19.01996608 2.3828125 20.47265625 C-2.67030333 20.97259218 -7.55848224 20.81626642 -12.6171875 20.47265625 C-12.75290905 18.0749088 -12.85155618 15.6849038 -12.9296875 13.28515625 C-12.97158203 12.61162109 -13.01347656 11.93808594 -13.05664062 11.24414062 C-13.15084991 7.38155977 -12.74566826 5.64434293 -10.41015625 2.5234375 C-6.67410361 -0.21981794 -4.4943889 -0.26161368 0 0 Z M-10.6171875 6.47265625 C-11.09914025 9.5170576 -11.09914025 9.5170576 -10.8671875 12.72265625 C-10.83109375 13.8003125 -10.795 14.87796875 -10.7578125 15.98828125 C-10.71140625 16.808125 -10.665 17.62796875 -10.6171875 18.47265625 C-4.02044628 19.6289191 -4.02044628 19.6289191 2.3828125 18.28515625 C4.56050362 16.31162367 5.59569732 15.30627089 6.3828125 12.47265625 C6.25494346 8.82838847 6.14315276 6.41547817 3.8203125 3.53515625 C-1.90715153 1.03856936 -6.73484705 1.27616073 -10.6171875 6.47265625 Z " fill="#E7FAEE" transform="translate(18.6171875,5.52734375)"/>
<path d="M0 0 C7.10583942 -0.60218978 7.10583942 -0.60218978 11.0625 2.0625 C13 5 13 5 12.8125 8.8125 C12.544375 9.864375 12.27625 10.91625 12 12 C11.01 12 10.02 12 9 12 C9 11.34 9 10.68 9 10 C7.02 10 5.04 10 3 10 C2.566875 8.576875 2.566875 8.576875 2.125 7.125 C1.23174891 3.94788422 1.23174891 3.94788422 -1 2 C-0.67 1.34 -0.34 0.68 0 0 Z " fill="#30D56D" transform="translate(12,8)"/>
<path d="M0 0 C0 0.99 0 1.98 0 3 C-0.61488281 2.96519531 -1.22976562 2.93039062 -1.86328125 2.89453125 C-3.07564453 2.85392578 -3.07564453 2.85392578 -4.3125 2.8125 C-5.11300781 2.77769531 -5.91351563 2.74289062 -6.73828125 2.70703125 C-9.0574807 2.81877309 -9.0574807 2.81877309 -10.75 4.3125 C-12.53582522 6.72336404 -12.67391585 9.06524268 -13 12 C-13.33 12 -13.66 12 -14 12 C-14.8125 8.8125 -14.8125 8.8125 -15 5 C-11.23107098 -1.10826427 -6.47295513 -0.56559802 0 0 Z " fill="#C8F4D8" transform="translate(21,6)"/>
<path d="M0 0 C0.66 0.33 1.32 0.66 2 1 C2.625 3.5625 2.625 3.5625 3 6 C5.97 6.495 5.97 6.495 9 7 C8.67 7.99 8.34 8.98 8 10 C4.88740396 9.654156 3.17127187 9.12620033 0.625 7.25 C-1 5 -1 5 -0.75 2.25 C-0.5025 1.5075 -0.255 0.765 0 0 Z " fill="#EAFAF0" transform="translate(12,11)"/>
</svg>
