<svg width="24" height="24" viewBox="0 0 24 24" fill="none" xmlns="http://www.w3.org/2000/svg">
<path d="M8 17.9995C6.34315 17.9995 5 16.6563 5 14.9995C5 13.3426 6.34315 11.9995 8 11.9995C8.22811 11.9995 8.44573 12.0864 8.62936 12.2217C9.29278 12.7107 10.1127 12.9996 11 12.9996H13C13.8874 12.9996 14.7072 12.7107 15.3706 12.2217C15.5543 12.0864 15.7719 11.9995 16 11.9995C17.6569 11.9995 19 13.3426 19 14.9995C19 16.6563 17.6569 17.9995 16 17.9995M10 20.9999H14M12 10.9999C9.79086 10.9999 8 9.20908 8 6.99994C8 4.7908 9.79086 2.99994 12 2.99994C14.2091 2.99994 16 4.7908 16 6.99994C16 9.20908 14.2091 10.9999 12 10.9999Z" stroke="white" stroke-width="1.5" stroke-linecap="round" stroke-linejoin="round"/>
</svg>
