<svg width="512" height="512" viewBox="0 0 512 512" fill="none" xmlns="http://www.w3.org/2000/svg">
<rect width="512" height="512" rx="256" fill="black"/>
<path d="M238.603 419.877C207.598 419.235 188.841 418.401 174.528 417.034C160.516 415.695 150.96 414.082 141.759 411.499C129.893 408.165 120.993 403.04 113.133 395.031C109.936 391.912 107.21 388.344 105.04 384.44C100.118 375.734 97.2337 364.104 95.4702 345.9C94.0074 330.922 93.2419 316.504 92.613 292.697L92.2029 276.844C91.8926 260.75 91.9382 244.652 92.3396 228.56C93.2555 195.132 93.9527 181.342 95.5385 165.353C96.5775 154.829 97.9309 147.122 99.9815 140.097C102.046 133.004 103.673 129.424 107.104 124.34C114.145 114.196 124.19 106.515 135.826 102.378C147.61 98.1136 162.826 95.5717 185.615 94.0683C210.891 92.5598 236.209 91.8761 261.529 92.0184C292.206 92.2097 324.592 93.4943 339.684 95.1343C352.316 96.501 360.19 97.8266 367.586 99.8083C370.785 100.656 375.611 102.214 378.072 103.198C388.27 107.243 397.156 114.131 404.32 123.52C407.286 127.387 410.198 133.236 412.126 139.14C413.752 144.115 415.147 150.511 416.227 157.836C417.553 166.965 418.797 182.969 419.371 198.562C419.918 213.158 420 220.62 420 257C420 290.866 419.973 293.722 419.645 303.917C418.277 347.759 415.571 366.947 408.845 380.887C406.179 386.449 403.048 390.617 397.594 395.961C394.274 399.408 390.47 402.355 386.302 404.707C376.226 410.543 363.841 414 345.071 416.187C329.568 417.991 311.605 419.016 286.15 419.563L271.522 419.877C263.689 420.041 246.915 420.041 238.617 419.877H238.603ZM319.479 403.546L323.074 398.585C341.503 373.308 358.197 346.812 373.041 319.278C376.855 312.199 379.07 307.197 381.558 300.077C387.327 283.568 390.417 261.619 389.61 243.019C388.967 226.653 385.808 210.483 380.245 195.077C374.777 179.989 366.411 164.765 357.06 152.957C346.988 140.512 335.259 129.503 322.199 120.24C314.64 114.992 306.205 110.099 300.75 107.83L299.615 107.366L298.727 107.735C292.971 110.154 284.113 115.115 276.84 119.994C265.575 127.538 255.076 137.213 245.315 149.021C244.194 150.388 244.591 150.32 237.072 150.347C231.057 150.374 230.113 150.415 226.682 150.784C213.483 152.246 200.712 156.345 189.128 162.838C182.913 166.222 177.11 170.313 171.835 175.029C166.093 180.156 160.948 185.914 156.496 192.194C141.31 213.57 134.985 239.991 138.847 265.924C140.406 276.789 143.865 287.722 149.005 298.163L150.577 301.32L150.167 304.682C148.989 313.821 146.975 322.833 144.152 331.605C140.625 341.937 136.551 349.29 130.973 355.33C129.715 356.697 128.54 357.749 123.646 361.89C123.092 362.33 122.567 362.805 122.073 363.311C122.032 363.926 134.104 364.35 139.449 363.926C156.455 362.56 173.981 356.519 193.667 345.272L196.579 343.618L199.094 344.616C209.416 348.716 219.614 351.162 229.772 351.996C233.053 352.255 240.79 352.296 243.989 352.05L246.149 351.9L246.723 352.556C247.051 352.925 247.94 354.032 248.706 355.016C257.096 365.704 266.838 375.259 277.688 383.442C287.72 390.891 298.68 397.002 310.292 401.619C313.409 402.835 318.112 404.489 318.467 404.502C318.686 404.502 319.014 404.202 319.479 403.546ZM313.915 395.646C289.089 386.271 266.86 368.86 250.401 345.941L249.266 344.356L250.155 343.017C252.697 339.19 280.476 298.929 280.928 298.409C280.996 298.327 281.133 298.409 293.135 306.117C303.799 312.951 304.127 313.169 304.592 313.005C305.138 312.814 305.002 312.978 307.667 309.452C317.415 296.605 324.045 281.285 326.396 266.17C327.193 261.365 327.559 256.499 327.49 251.629C327.554 248.523 327.389 245.417 326.998 242.336C325.593 228.519 321.133 215.187 313.942 203.304C311.96 200.059 309.82 196.912 307.531 193.875L307.162 193.437L306.505 193.806C305.549 194.353 302.021 196.553 299.451 198.234C291.878 203.195 286.833 206.338 284.687 207.418L283.853 207.828L283.58 207.473L278.877 200.639L268.35 185.415C260.025 173.416 255.35 166.596 251.535 160.938L248.323 156.141L248.774 155.554C250.114 153.777 254.16 149.09 256.525 146.534C268.499 133.5 282.85 122.868 298.809 115.21L299.629 114.855L300.422 115.224C302.309 116.085 307.626 118.996 310.607 120.827C323.252 128.494 334.968 138.389 346.834 151.345C350.252 155.089 352.767 158.314 356.568 163.822C368.978 181.89 377.262 202.466 380.833 224.091C383.344 239.604 383.501 255.407 381.298 270.967C380.628 275.791 379.644 281.381 378.783 285.126C376.144 296.269 372.039 307.013 366.575 317.078C351.613 344.626 334.806 371.131 316.266 396.412C315.463 396.223 314.676 395.967 313.915 395.646ZM192.833 266.635C192.71 266.594 192.095 266.498 191.466 266.389C188.372 265.783 185.608 264.061 183.701 261.551C181.814 259.133 180.871 256.112 181.049 253.05C181.241 250.401 182.209 247.867 183.833 245.764C185.457 243.662 187.665 242.084 190.181 241.229C191.276 240.841 192.441 240.692 193.599 240.792C194.741 240.73 195.887 240.854 196.989 241.161C199.759 241.907 202.209 243.541 203.962 245.812C205.715 248.083 206.675 250.865 206.695 253.734C206.652 256.435 205.786 259.059 204.213 261.257C202.64 263.454 200.435 265.12 197.891 266.034C196.252 266.521 194.541 266.72 192.833 266.621V266.635ZM234.843 266.485C232.365 266.059 230.059 264.933 228.199 263.24C226.339 261.548 225.001 259.359 224.344 256.932C223.832 254.757 223.865 252.49 224.44 250.331C225.807 245.821 229.033 242.473 233.326 241.161C234.857 240.682 237.892 240.641 239.615 241.092C241.61 241.587 243.464 242.535 245.033 243.863C246.603 245.19 247.845 246.861 248.665 248.745C249.341 250.466 249.648 252.308 249.567 254.155C249.486 256.001 249.018 257.81 248.193 259.464C247.368 261.118 246.205 262.581 244.779 263.757C243.353 264.934 241.696 265.798 239.915 266.293C238.253 266.65 236.542 266.715 234.857 266.485H234.843ZM278.139 266.553C272.944 266.006 268.514 261.961 267.147 256.481C266.855 255.404 266.762 254.283 266.874 253.173C266.858 252.065 267.044 250.963 267.421 249.921C268.651 246.381 271.877 242.678 274.557 241.748C276.567 241.038 278.057 240.819 280.531 240.901C282.472 240.969 282.91 241.038 283.908 241.407C285.652 242.081 287.237 243.109 288.564 244.427C289.891 245.744 290.931 247.321 291.618 249.06C292.384 251.028 292.575 252.203 292.479 254.253C292.38 257.464 291.054 260.516 288.775 262.781C287.42 264.197 285.752 265.276 283.905 265.931C282.058 266.586 280.083 266.799 278.139 266.553Z" fill="white"/>
</svg>
