<svg width="512" height="525" viewBox="0 0 512 525" fill="none" xmlns="http://www.w3.org/2000/svg">
<path d="M510.405 227.192C508.801 212.216 505.791 197.424 501.417 183.012C497.246 168.56 491.715 154.537 484.898 141.129C476.638 124.704 466.642 109.21 455.082 94.9144C434.669 69.6639 409.616 48.5488 381.274 32.7061C369.213 26.0884 356.759 19.995 343.717 15.5376C332.065 11.1687 320.071 7.76958 307.859 5.37499C295.667 2.49085 283.15 1.77244 270.759 0H241.723C237.722 0.723657 233.595 1.04878 229.531 1.44207C180.401 6.41307 133.79 25.6187 95.4189 56.7022C88.2715 62.203 81.6537 68.3017 75.2299 74.5314C61.2025 88.7529 48.4861 104.422 38.1294 121.464C30.5206 133.533 24.0465 146.282 18.7899 159.545C13.1286 173.081 8.7824 187.129 5.81131 201.497C3.12644 213.101 1.6162 224.963 0.567423 236.762C-0.612453 256.363 -0.0198937 276.028 3.05827 295.362C5.73497 312.58 10.1917 329.474 16.3568 345.772C31.7787 386.497 57.3257 422.62 90.5858 450.73C123.846 478.841 163.722 498.01 206.448 506.429C255.41 516.13 307.325 511.211 353.471 492.008C373.597 502.564 393.324 513.901 413.513 524.389H417.646C418.517 523.109 419.305 521.774 420.005 520.393C421.117 497.577 420.53 474.509 420.399 451.63C451.075 425.872 475.863 392.967 491.453 355.997C499.969 336.31 505.874 315.594 509.02 294.376C512.461 272.142 512.927 249.549 510.405 227.192ZM360.629 310.638C358.876 324.514 354.493 337.928 347.713 350.161C330.476 379.527 300.979 400.502 268.792 410.665C223.239 425.348 170.994 416.166 133.044 386.999C122.425 378.085 111.214 368.845 104.334 356.585C109.709 357.439 114.166 360.586 119.21 362.222C142.546 369.894 169.814 365.698 188.692 349.768C201.933 339.217 211.44 323.873 214.717 307.292C217.927 291.891 215.504 275.96 211.11 261.078C207.308 246.793 201.87 232.897 199.049 218.345C196.757 204.711 196.626 190.747 199.311 177.181C202.904 159.574 210.885 143.16 222.515 129.461C243.69 105.601 275.678 91.3119 307.728 94.1278C308.059 94.39 308.646 94.8515 308.908 95.0455C293.57 106.713 285.573 127.888 291.997 146.504C296.26 159.477 303.927 171.15 312.123 182.031C320.838 194.417 330.539 206.085 338.735 218.932C345.815 230.93 351.845 243.647 355.972 257.019C360.823 274.387 362.978 292.677 360.629 310.638Z" fill="black"/>
</svg>
