<?xml version="1.0" encoding="utf-8"?>
<!-- Generator: Adobe Illustrator 27.5.0, SVG Export Plug-In . SVG Version: 6.00 Build 0)  -->
<svg version="1.1" xmlns="http://www.w3.org/2000/svg" xmlns:xlink="http://www.w3.org/1999/xlink" x="0px" y="0px"
	 viewBox="0 0 750 500" style="enable-background:new 0 0 750 500;" xml:space="preserve">
<g id="Background_Simple">
	<g>
		<path style="fill:#cce4ff;" d="M497.623,44.796l-355.482,75.279c-37.565,7.955-57.896,48.856-41.557,83.604l112.048,238.307
			c13.11,27.884,45.324,41.163,74.276,30.619l294.851-107.384c28.638-10.43,44.78-40.797,37.406-70.369L567.748,88.65
			C559.99,57.538,528.993,38.153,497.623,44.796z"/>
		<path style="opacity:0.7;fill:#FFFFFF;" d="M497.623,44.796l-355.482,75.279c-37.565,7.955-57.896,48.856-41.557,83.604
			l112.048,238.307c13.11,27.884,45.324,41.163,74.276,30.619l294.851-107.384c28.638-10.43,44.78-40.797,37.406-70.369
			L567.748,88.65C559.99,57.538,528.993,38.153,497.623,44.796z"/>
	</g>
</g>
<g id="Money">
	<g style="opacity:0.3;">
		
			<ellipse transform="matrix(0.9941 -0.1087 0.1087 0.9941 -12.4374 64.3363)" style="fill:none;stroke:#000000;stroke-linecap:round;stroke-linejoin:round;stroke-miterlimit:10;" cx="584.015" cy="146.271" rx="37.187" ry="37.187"/>
		
			<ellipse transform="matrix(0.4751 -0.8799 0.8799 0.4751 177.8259 590.6573)" style="fill:none;stroke:#000000;stroke-linecap:round;stroke-linejoin:round;stroke-miterlimit:10;" cx="584.015" cy="146.271" rx="31.703" ry="31.703"/>
		<path style="fill:none;stroke:#000000;stroke-linecap:round;stroke-linejoin:round;stroke-miterlimit:10;" d="M597.506,152.634
			c0-10.665-15.118-10.9-15.118-15.354c0-2.343,1.23-3.047,3.751-3.047c2.168,0,3.983,0.938,6.095,2.814l4.981-5.744
			c-2.315-2.457-5.142-4.283-8.849-4.906v-5.994H581.8v6.172c-5.647,1.222-9.025,5.25-9.025,11.176
			c0,10.256,15.121,10.901,15.121,15.588c0,2.286-1.171,3.283-4.101,3.283c-2.462,0-4.924-0.938-8.089-3.283l-4.336,6.798
			c2.906,2.616,7.08,4.014,10.431,4.426v5.889h6.566v-6.3C594.486,162.696,597.506,158.277,597.506,152.634z"/>
	</g>
	<g style="opacity:0.3;">
		
			<circle style="fill:none;stroke:#000000;stroke-linecap:round;stroke-linejoin:round;stroke-miterlimit:10;" cx="606.166" cy="343.851" r="16.965"/>
		
			<ellipse transform="matrix(0.7071 -0.7071 0.7071 0.7071 -65.5974 529.3358)" style="fill:none;stroke:#000000;stroke-linecap:round;stroke-linejoin:round;stroke-miterlimit:10;" cx="606.166" cy="343.851" rx="14.463" ry="14.463"/>
		<path style="fill:none;stroke:#000000;stroke-linecap:round;stroke-linejoin:round;stroke-miterlimit:10;" d="M612.321,346.754
			c0-4.866-6.897-4.973-6.897-7.005c0-1.069,0.561-1.39,1.711-1.39c0.989,0,1.817,0.428,2.781,1.284l2.272-2.62
			c-1.056-1.121-2.346-1.954-4.037-2.238v-2.735h-2.995v2.816c-2.576,0.557-4.117,2.395-4.117,5.098
			c0,4.679,6.898,4.973,6.898,7.111c0,1.043-0.534,1.498-1.871,1.498c-1.123,0-2.246-0.428-3.69-1.498l-1.978,3.101
			c1.326,1.193,3.23,1.831,4.759,2.019v2.686h2.995v-2.874C610.943,351.344,612.321,349.328,612.321,346.754z"/>
	</g>
	<g style="opacity:0.3;">
		
			<ellipse transform="matrix(0.9875 -0.1579 0.1579 0.9875 -3.8641 47.5455)" style="fill:none;stroke:#000000;stroke-linecap:round;stroke-linejoin:round;stroke-miterlimit:10;" cx="297.277" cy="48.09" rx="26.618" ry="26.618"/>
		
			<ellipse transform="matrix(0.5356 -0.8444 0.8444 0.5356 97.4323 273.3643)" style="fill:none;stroke:#000000;stroke-linecap:round;stroke-linejoin:round;stroke-miterlimit:10;" cx="297.277" cy="48.09" rx="22.692" ry="22.692"/>
		<path style="fill:none;stroke:#000000;stroke-linecap:round;stroke-linejoin:round;stroke-miterlimit:10;" d="M306.934,52.645
			c0-7.634-10.821-7.802-10.821-10.99c0-1.677,0.88-2.181,2.685-2.181c1.552,0,2.851,0.672,4.363,2.014l3.565-4.111
			c-1.657-1.759-3.681-3.066-6.334-3.512v-4.291h-4.699v4.418c-4.042,0.874-6.46,3.758-6.46,7.999
			c0,7.341,10.823,7.802,10.823,11.158c0,1.636-0.839,2.35-2.935,2.35c-1.762,0-3.525-0.672-5.79-2.35l-3.104,4.866
			c2.08,1.872,5.067,2.873,7.466,3.168v4.215h4.699v-4.509C304.772,59.847,306.934,56.684,306.934,52.645z"/>
	</g>
	<g style="opacity:0.3;">
		
			<ellipse transform="matrix(0.9871 -0.1602 0.1602 0.9871 -54.7147 18.3402)" style="fill:none;stroke:#000000;stroke-linecap:round;stroke-linejoin:round;stroke-miterlimit:10;" cx="86.4" cy="348.543" rx="16.965" ry="16.965"/>
		<path style="fill:none;stroke:#000000;stroke-linecap:round;stroke-linejoin:round;stroke-miterlimit:10;" d="M100.863,348.543
			c0-7.988-6.475-14.463-14.463-14.463s-14.463,6.475-14.463,14.463c0,7.988,6.475,14.463,14.463,14.463
			S100.863,356.531,100.863,348.543z"/>
		<path style="fill:none;stroke:#000000;stroke-linecap:round;stroke-linejoin:round;stroke-miterlimit:10;" d="M92.554,351.446
			c0-4.866-6.897-4.973-6.897-7.005c0-1.069,0.561-1.39,1.711-1.39c0.989,0,1.817,0.428,2.781,1.284l2.272-2.62
			c-1.056-1.121-2.346-1.954-4.037-2.238v-2.735h-2.995v2.816c-2.576,0.557-4.117,2.395-4.117,5.098
			c0,4.679,6.898,4.973,6.898,7.111c0,1.043-0.534,1.498-1.871,1.498c-1.123,0-2.246-0.428-3.69-1.498l-1.978,3.101
			c1.326,1.193,3.23,1.831,4.759,2.019v2.687h2.995V356.7C91.177,356.036,92.554,354.02,92.554,351.446z"/>
	</g>
	<g style="opacity:0.3;">
		
			<ellipse transform="matrix(0.9889 -0.1486 0.1486 0.9889 -57.442 80.3809)" style="fill:none;stroke:#000000;stroke-linecap:round;stroke-linejoin:round;stroke-miterlimit:10;" cx="509.09" cy="424.522" rx="16.965" ry="16.965"/>
		<path style="fill:none;stroke:#000000;stroke-linecap:round;stroke-linejoin:round;stroke-miterlimit:10;" d="M523.553,424.522
			c0-7.988-6.475-14.463-14.463-14.463c-7.988,0-14.463,6.475-14.463,14.463c0,7.988,6.475,14.463,14.463,14.463
			C517.078,438.985,523.553,432.51,523.553,424.522z"/>
		<path style="fill:none;stroke:#000000;stroke-linecap:round;stroke-linejoin:round;stroke-miterlimit:10;" d="M515.245,427.425
			c0-4.865-6.897-4.973-6.897-7.005c0-1.069,0.561-1.39,1.711-1.39c0.989,0,1.817,0.428,2.781,1.283l2.272-2.62
			c-1.056-1.121-2.346-1.954-4.037-2.238v-2.735h-2.995v2.816c-2.576,0.557-4.117,2.395-4.117,5.098
			c0,4.679,6.898,4.973,6.898,7.111c0,1.043-0.534,1.498-1.871,1.498c-1.123,0-2.246-0.428-3.69-1.498l-1.978,3.101
			c1.326,1.193,3.23,1.831,4.759,2.019v2.686h2.995v-2.874C513.867,432.015,515.245,429.999,515.245,427.425z"/>
	</g>
	<g style="opacity:0.3;">
		
			<circle style="fill:none;stroke:#000000;stroke-linecap:round;stroke-linejoin:round;stroke-miterlimit:10;" cx="173.663" cy="156.076" r="16.965"/>
		
			<ellipse transform="matrix(0.3404 -0.9403 0.9403 0.3404 -32.2099 266.2335)" style="fill:none;stroke:#000000;stroke-linecap:round;stroke-linejoin:round;stroke-miterlimit:10;" cx="173.663" cy="156.076" rx="14.463" ry="14.463"/>
		<path style="fill:none;stroke:#000000;stroke-linecap:round;stroke-linejoin:round;stroke-miterlimit:10;" d="M179.817,158.978
			c0-4.866-6.897-4.973-6.897-7.005c0-1.069,0.561-1.39,1.711-1.39c0.989,0,1.817,0.428,2.781,1.283l2.272-2.62
			c-1.056-1.121-2.346-1.954-4.037-2.238v-2.735h-2.995v2.816c-2.576,0.557-4.117,2.395-4.117,5.098
			c0,4.679,6.898,4.973,6.898,7.111c0,1.043-0.534,1.498-1.871,1.498c-1.123,0-2.246-0.428-3.69-1.498l-1.978,3.101
			c1.326,1.193,3.23,1.831,4.759,2.019v2.687h2.995v-2.874C178.439,163.568,179.817,161.553,179.817,158.978z"/>
	</g>
	<g style="opacity:0.3;">
		
			<ellipse transform="matrix(0.994 -0.1091 0.1091 0.994 -38.5036 19.5213)" style="fill:none;stroke:#000000;stroke-linecap:round;stroke-linejoin:round;stroke-miterlimit:10;" cx="159.118" cy="361.574" rx="37.187" ry="37.187"/>
		
			<ellipse transform="matrix(0.4425 -0.8968 0.8968 0.4425 -235.5405 344.2805)" style="fill:none;stroke:#000000;stroke-linecap:round;stroke-linejoin:round;stroke-miterlimit:10;" cx="159.118" cy="361.574" rx="31.703" ry="31.703"/>
		<path style="fill:none;stroke:#000000;stroke-linecap:round;stroke-linejoin:round;stroke-miterlimit:10;" d="M172.609,367.937
			c0-10.665-15.118-10.901-15.118-15.354c0-2.343,1.23-3.047,3.75-3.047c2.168,0,3.984,0.938,6.095,2.813l4.981-5.744
			c-2.315-2.457-5.142-4.283-8.849-4.906v-5.994h-6.566v6.172c-5.647,1.222-9.025,5.25-9.025,11.176
			c0,10.256,15.121,10.901,15.121,15.588c0,2.286-1.171,3.283-4.101,3.283c-2.462,0-4.924-0.938-8.089-3.283l-4.336,6.798
			c2.906,2.616,7.08,4.014,10.431,4.426v5.889h6.566v-6.3C169.589,377.999,172.609,373.58,172.609,367.937z"/>
	</g>
</g>
<g id="Plants">
	<g>
		<path style="fill:#cce4ff;" d="M137.798,182.689c0.239,4.768-3.773,14.691-3.776,14.698c-0.042,0.103-5.737-4.63-6.062-4.97
			c-3.763-3.933-8.72-13.748-5.819-19.109c2.09-3.862,7.021-4.585,10.505-2.216C136.205,173.513,137.593,178.628,137.798,182.689z"
			/>
		<path style="fill:#cce4ff;" d="M235.117,277.452c0.214,0.127,0.415,0.243,0.626,0.368l0.074,4.309
			c-0.844-0.516-1.699-1.043-2.578-1.591c-2.492-1.547-5.123-3.249-7.81-5.024c-0.517,0.566-3.477,3.768-6.616,6.41
			c2.056,4.114,2.925,12.991,3.029,14.137c2.888-0.07,5.695-0.168,8.344-0.302c1.824-0.088,3.574-0.187,5.259-0.294l-1.432,3.784
			c-1.203,0.045-2.422,0.087-3.691,0.121c-2.932,0.085-6.067,0.116-9.285,0.118c-0.181,1.157-1.72,10.607-4.19,14.348
			c-2.242,3.391-6.04,7.09-10.336,7.364c-4.204,0.267-8.082-2.863-7.916-7.253c0.229-6.091,9.489-12.019,14.73-13.491
			c0.309-0.088,3.769-0.655,5.957-0.978c-1.315-0.006-2.592,0.002-3.946-0.021c-2.678-0.026-5.349-0.133-8.223-0.236
			c-1.386-0.098-2.787-0.198-4.201-0.298c-1.405-0.071-2.879-0.323-4.333-0.479c-3.365-0.432-6.753-1.035-10.152-1.717
			c-0.03,2.344-0.254,10.669-1.964,14.378c-1.702,3.693-4.895,7.924-9.1,8.844c-4.116,0.902-8.423-1.605-8.925-5.969
			c-0.696-6.057,7.56-13.318,12.517-15.568c0.308-0.141,4.047-1.355,6.113-1.982c-2.04-0.426-4.078-0.842-6.129-1.34
			c-5.919-1.437-11.865-3.077-17.805-4.685c-1.819-0.494-3.637-0.964-5.456-1.441c-0.001,0.835-0.054,10.734-1.969,14.889
			c-1.701,3.693-4.895,7.924-9.1,8.844c-4.115,0.902-8.423-1.605-8.923-5.968c-0.696-6.056,7.559-13.318,12.515-15.568
			c0.373-0.169,5.755-1.909,7.146-2.285c-4.007-1.051-8.007-2.06-11.992-2.895c-5.496-1.16-10.954-1.993-16.301-2.411
			c0,0.388-0.008,10.722-1.969,14.977c-1.702,3.693-4.896,7.924-9.1,8.844c-4.116,0.901-8.422-1.605-8.924-5.969
			c-0.696-6.057,7.559-13.317,12.516-15.568c0.389-0.176,6.18-2.045,7.254-2.309c-0.318-0.023-0.645-0.083-0.963-0.103
			c-5.714-0.373-11.296-0.016-16.506,0.574c-3.028,0.337-5.904,0.828-8.69,1.369c0.196,1.925,0.993,10.731-0.348,14.756
			c-1.286,3.857-3.996,8.414-8.074,9.789c-3.992,1.348-8.548-0.67-9.526-4.951c-1.357-5.944,6.051-14.067,10.731-16.849
			c0.254-0.151,3.012-1.401,5.033-2.284c-1.255,0.263-2.553,0.511-3.749,0.788c-4.495,1.026-8.547,2.242-12.127,3.349
			c-2.03,0.646-3.854,1.269-5.554,1.872c-0.792,1.988-4.09,9.964-7.08,12.864c-2.919,2.83-7.423,5.626-11.677,4.969
			c-4.165-0.645-7.278-4.536-6.172-8.785c1.534-5.9,11.852-9.698,17.287-10.009c0.47-0.026,7.864,0.397,7.823,0.501
			c0,0-0.038,0.097-0.047,0.121c1.624-0.613,3.372-1.249,5.297-1.907c3.564-1.187,7.6-2.496,12.089-3.622
			c4.484-1.139,9.387-2.25,14.658-2.954c5.282-0.713,10.874-1.192,16.701-0.941c0.065,0.002,0.134,0.014,0.2,0.017
			c-1.682-0.602-6.327-2.444-6.666-2.626c-4.801-2.565-12.573-10.342-11.488-16.343c0.782-4.321,5.241-6.545,9.291-5.381
			c4.136,1.19,7.05,5.617,8.511,9.412c1.647,4.279,1.054,14.204,1.006,14.994c5.546,0.289,11.214,1.038,16.908,2.109
			c3.257,0.61,6.517,1.326,9.778,2.084c-1.437-0.568-2.718-1.086-2.889-1.178c-4.802-2.566-12.572-10.342-11.487-16.342
			c0.781-4.323,5.241-6.545,9.29-5.381c4.137,1.189,7.051,5.617,8.511,9.411c1.481,3.851,1.147,12.323,1.028,14.563
			c1.247,0.304,2.498,0.594,3.744,0.903c5.981,1.481,11.942,2.985,17.836,4.281c2.076,0.459,4.138,0.832,6.199,1.214
			c-1.275-0.505-2.345-0.942-2.501-1.025c-4.802-2.566-12.572-10.343-11.488-16.341c0.783-4.323,5.241-6.547,9.292-5.382
			c4.135,1.188,7.05,5.618,8.51,9.412c1.415,3.674,1.176,11.497,1.047,14.161c2.123,0.328,4.249,0.659,6.321,0.881
			c1.419,0.119,2.775,0.333,4.207,0.374c1.415,0.07,2.818,0.14,4.205,0.209c2.679,0.033,5.442,0.086,8.055,0.054
			c1.818-0.008,3.551-0.051,5.295-0.088c-2.072-0.432-6.111-1.362-6.439-1.478c-3.411-1.202-8.455-4.483-11.416-8.336
			c-0.505-0.174-0.992-0.391-1.457-0.658c-3.655-2.097-5.162-6.847-2.602-10.417c3.551-4.954,14.545-4.79,19.728-3.126
			c0.306,0.098,3.505,1.532,5.508,2.471c-1.093-0.732-2.163-1.428-3.28-2.194c-2.218-1.5-4.387-3.062-6.729-4.733
			c-1.102-0.847-2.214-1.703-3.338-2.568c-1.132-0.833-2.223-1.857-3.35-2.789c-2.567-2.217-5.062-4.589-7.52-7.034
			c-1.319,1.94-6.098,8.759-9.57,10.909c-3.456,2.142-8.455,3.908-12.469,2.357c-3.93-1.52-6.14-5.985-4.151-9.901
			c2.76-5.436,13.652-6.939,19.028-6.081c0.335,0.054,4.123,1.103,6.193,1.719c-1.466-1.481-2.938-2.952-4.373-4.499
			c-4.145-4.464-8.2-9.11-12.266-13.73c-1.245-1.415-2.502-2.81-3.755-4.212c-0.462,0.695-5.968,8.924-9.857,11.333
			c-3.456,2.141-8.454,3.908-12.469,2.356c-3.93-1.519-6.14-5.985-4.15-9.901c2.76-5.436,13.651-6.939,19.027-6.081
			c0.405,0.065,5.853,1.583,7.22,2.036c-2.761-3.085-5.541-6.134-8.405-9.03c-3.945-3.999-8.036-7.706-12.266-11.003
			c-0.215,0.325-5.923,8.938-9.906,11.406c-3.456,2.141-8.454,3.908-12.469,2.356c-3.93-1.519-6.139-5.985-4.15-9.901
			c2.76-5.435,13.651-6.938,19.027-6.08c0.422,0.067,6.283,1.703,7.323,2.076c-0.251-0.196-0.49-0.426-0.743-0.618
			c-4.562-3.463-9.414-6.245-14.085-8.627c-2.711-1.39-5.38-2.565-8.002-3.651c-0.899,1.713-5.092,9.498-8.431,12.114
			c-3.201,2.508-7.975,4.813-12.134,3.712c-4.074-1.079-6.761-5.275-5.214-9.385c2.146-5.706,12.807-8.396,18.244-8.134
			c0.296,0.014,3.286,0.492,5.459,0.871c-1.191-0.472-2.412-0.982-3.562-1.411c-4.314-1.623-8.366-2.845-11.962-3.897
			c-2.051-0.582-3.916-1.067-5.665-1.502c-1.759,1.22-8.909,6.053-13.003,6.823c-3.996,0.751-9.295,0.597-12.479-2.297
			c-3.119-2.835-3.568-7.797-0.303-10.732c4.535-4.075,15.236-1.549,19.941,1.188c0.405,0.238,6.339,4.669,6.249,4.734
			c0,0-0.086,0.059-0.106,0.073c1.692,0.385,3.503,0.819,5.47,1.332c3.627,0.975,7.715,2.111,12.082,3.648
			c4.368,1.524,9.071,3.303,13.855,5.623c4.798,2.32,9.728,5.004,14.449,8.427c0.053,0.039,0.104,0.086,0.157,0.125
			c-1.07-1.43-3.927-5.53-4.111-5.87c-2.59-4.788-4.78-15.562-0.566-19.967c3.037-3.173,7.983-2.568,10.718,0.637
			c2.793,3.274,2.781,8.575,1.906,12.544c-0.987,4.479-6.956,12.43-7.434,13.061c4.466,3.302,8.782,7.052,12.939,11.088
			c2.38,2.304,4.705,4.7,7.006,7.131c-0.885-1.266-1.667-2.405-1.76-2.576c-2.59-4.789-4.779-15.563-0.565-19.967
			c3.036-3.175,7.981-2.569,10.717,0.636c2.794,3.272,2.782,8.576,1.907,12.545c-0.888,4.03-5.841,10.91-7.177,12.714
			c0.873,0.942,1.755,1.872,2.624,2.818c4.172,4.535,8.315,9.078,12.515,13.41c1.479,1.527,2.992,2.977,4.501,4.434
			c-0.785-1.126-1.437-2.08-1.522-2.236c-2.589-4.788-4.78-15.562-0.565-19.967c3.036-3.174,7.982-2.568,10.717,0.637
			c2.794,3.274,2.782,8.575,1.906,12.546c-0.847,3.845-5.362,10.238-6.938,12.389c1.59,1.444,3.18,2.894,4.785,4.222
			c1.117,0.882,2.131,1.81,3.302,2.632c1.142,0.84,2.273,1.671,3.394,2.494c2.214,1.506,4.491,3.074,6.688,4.489
			c1.521,0.996,2.989,1.917,4.465,2.849c-1.49-1.503-4.346-4.507-4.557-4.786c-3.286-4.339-7.081-14.657-3.583-19.651
			c2.521-3.597,7.501-3.748,10.69-0.993c3.257,2.812,4.049,8.054,3.786,12.111c-0.292,4.467-4.763,12.909-5.329,13.96
			C230.439,274.634,232.834,276.103,235.117,277.452z"/>
		<path style="fill:#cce4ff;" d="M101.698,284.751c0.022,0.109-7.341-0.697-7.799-0.8c-5.308-1.206-14.857-6.657-15.395-12.73
			c-0.388-4.374,3.326-7.696,7.54-7.642c4.302,0.054,8.283,3.555,10.694,6.83C99.569,274.253,101.696,284.743,101.698,284.751z"/>
	</g>
	<g>
		<path style="fill:#cce4ff;" d="M632.918,182.689c-0.239,4.768,3.773,14.691,3.776,14.698c0.042,0.103,5.737-4.63,6.063-4.97
			c3.763-3.933,8.72-13.748,5.819-19.109c-2.09-3.862-7.021-4.585-10.505-2.216C634.511,173.513,633.122,178.628,632.918,182.689z"
			/>
		<path style="fill:#cce4ff;" d="M535.598,277.452c-0.214,0.127-0.415,0.243-0.626,0.368l-0.074,4.309
			c0.844-0.516,1.699-1.043,2.578-1.591c2.492-1.547,5.123-3.249,7.81-5.024c0.517,0.566,3.477,3.768,6.616,6.41
			c-2.056,4.114-2.925,12.991-3.029,14.137c-2.888-0.07-5.695-0.168-8.344-0.302c-1.824-0.088-3.574-0.187-5.259-0.294l1.432,3.784
			c1.203,0.045,2.422,0.087,3.691,0.121c2.932,0.085,6.067,0.116,9.285,0.118c0.181,1.157,1.72,10.607,4.19,14.348
			c2.242,3.391,6.04,7.09,10.336,7.364c4.204,0.267,8.082-2.863,7.916-7.253c-0.229-6.091-9.489-12.019-14.729-13.491
			c-0.309-0.088-3.769-0.655-5.957-0.978c1.315-0.006,2.592,0.002,3.946-0.021c2.678-0.026,5.349-0.133,8.223-0.236
			c1.386-0.098,2.787-0.198,4.201-0.298c1.405-0.071,2.879-0.323,4.333-0.479c3.365-0.432,6.753-1.035,10.152-1.717
			c0.03,2.344,0.254,10.669,1.964,14.378c1.702,3.693,4.895,7.924,9.1,8.844c4.116,0.902,8.423-1.605,8.925-5.969
			c0.696-6.057-7.56-13.318-12.517-15.568c-0.308-0.141-4.047-1.355-6.113-1.982c2.04-0.426,4.078-0.842,6.129-1.34
			c5.919-1.437,11.865-3.077,17.805-4.685c1.819-0.494,3.637-0.964,5.456-1.441c0.001,0.835,0.054,10.734,1.969,14.889
			c1.701,3.693,4.895,7.924,9.1,8.844c4.115,0.902,8.422-1.605,8.923-5.968c0.696-6.056-7.558-13.318-12.515-15.568
			c-0.373-0.169-5.755-1.909-7.146-2.285c4.006-1.051,8.007-2.06,11.992-2.895c5.496-1.16,10.954-1.993,16.301-2.411
			c0,0.388,0.008,10.722,1.969,14.977c1.702,3.693,4.896,7.924,9.1,8.844c4.116,0.901,8.422-1.605,8.924-5.969
			c0.696-6.057-7.559-13.317-12.516-15.568c-0.389-0.176-6.18-2.045-7.254-2.309c0.318-0.023,0.645-0.083,0.963-0.103
			c5.714-0.373,11.296-0.016,16.505,0.574c3.028,0.337,5.904,0.828,8.69,1.369c-0.196,1.925-0.993,10.731,0.348,14.756
			c1.286,3.857,3.996,8.414,8.074,9.789c3.992,1.348,8.548-0.67,9.526-4.951c1.357-5.944-6.051-14.067-10.731-16.849
			c-0.254-0.151-3.011-1.401-5.032-2.284c1.255,0.263,2.553,0.511,3.749,0.788c4.495,1.026,8.547,2.242,12.128,3.349
			c2.03,0.646,3.854,1.269,5.554,1.872c0.792,1.988,4.09,9.964,7.08,12.864c2.919,2.83,7.423,5.626,11.677,4.969
			c4.165-0.645,7.278-4.536,6.172-8.785c-1.534-5.9-11.852-9.698-17.287-10.009c-0.47-0.026-7.864,0.397-7.823,0.501
			c0,0,0.038,0.097,0.047,0.121c-1.624-0.613-3.372-1.249-5.297-1.907c-3.564-1.187-7.6-2.496-12.089-3.622
			c-4.484-1.139-9.387-2.25-14.658-2.954c-5.282-0.713-10.874-1.192-16.701-0.941c-0.065,0.002-0.134,0.014-0.2,0.017
			c1.682-0.602,6.327-2.444,6.667-2.626c4.801-2.565,12.573-10.342,11.488-16.343c-0.782-4.321-5.241-6.545-9.291-5.381
			c-4.136,1.19-7.05,5.617-8.51,9.412c-1.647,4.279-1.054,14.204-1.006,14.994c-5.546,0.289-11.214,1.038-16.908,2.109
			c-3.257,0.61-6.517,1.326-9.778,2.084c1.437-0.568,2.718-1.086,2.889-1.178c4.802-2.566,12.572-10.342,11.487-16.342
			c-0.781-4.323-5.241-6.545-9.29-5.381c-4.137,1.189-7.051,5.617-8.511,9.411c-1.481,3.851-1.147,12.323-1.028,14.563
			c-1.247,0.304-2.498,0.594-3.744,0.903c-5.981,1.481-11.942,2.985-17.836,4.281c-2.076,0.459-4.138,0.832-6.199,1.214
			c1.275-0.505,2.345-0.942,2.501-1.025c4.802-2.566,12.572-10.343,11.488-16.341c-0.783-4.323-5.241-6.547-9.292-5.382
			c-4.135,1.188-7.05,5.618-8.51,9.412c-1.415,3.674-1.176,11.497-1.047,14.161c-2.123,0.328-4.249,0.659-6.321,0.881
			c-1.419,0.119-2.775,0.333-4.207,0.374c-1.415,0.07-2.818,0.14-4.206,0.209c-2.679,0.033-5.442,0.086-8.055,0.054
			c-1.818-0.008-3.551-0.051-5.295-0.088c2.072-0.432,6.111-1.362,6.44-1.478c3.411-1.202,8.455-4.483,11.416-8.336
			c0.505-0.174,0.992-0.391,1.457-0.658c3.655-2.097,5.162-6.847,2.602-10.417c-3.552-4.954-14.545-4.79-19.728-3.126
			c-0.306,0.098-3.505,1.532-5.508,2.471c1.093-0.732,2.163-1.428,3.28-2.194c2.218-1.5,4.387-3.062,6.729-4.733
			c1.102-0.847,2.214-1.703,3.338-2.568c1.132-0.833,2.223-1.857,3.35-2.789c2.567-2.217,5.061-4.589,7.52-7.034
			c1.319,1.94,6.098,8.759,9.57,10.909c3.456,2.142,8.455,3.908,12.469,2.357c3.931-1.52,6.141-5.985,4.152-9.901
			c-2.76-5.436-13.652-6.939-19.028-6.081c-0.335,0.054-4.123,1.103-6.193,1.719c1.466-1.481,2.938-2.952,4.373-4.499
			c4.145-4.464,8.2-9.11,12.266-13.73c1.245-1.415,2.502-2.81,3.755-4.212c0.462,0.695,5.968,8.924,9.857,11.333
			c3.456,2.141,8.454,3.908,12.469,2.356c3.93-1.519,6.14-5.985,4.15-9.901c-2.76-5.436-13.651-6.939-19.027-6.081
			c-0.405,0.065-5.853,1.583-7.22,2.036c2.761-3.085,5.541-6.134,8.405-9.03c3.945-3.999,8.036-7.706,12.266-11.003
			c0.215,0.325,5.923,8.938,9.905,11.406c3.456,2.141,8.454,3.908,12.469,2.356c3.93-1.519,6.139-5.985,4.15-9.901
			c-2.76-5.435-13.651-6.938-19.027-6.08c-0.422,0.067-6.283,1.703-7.323,2.076c0.251-0.196,0.49-0.426,0.743-0.618
			c4.562-3.463,9.414-6.245,14.085-8.627c2.711-1.39,5.38-2.565,8.002-3.651c0.899,1.713,5.092,9.498,8.431,12.114
			c3.201,2.508,7.975,4.813,12.134,3.712c4.074-1.079,6.761-5.275,5.214-9.385c-2.146-5.706-12.807-8.396-18.244-8.134
			c-0.296,0.014-3.286,0.492-5.458,0.871c1.191-0.472,2.412-0.982,3.562-1.411c4.315-1.623,8.366-2.845,11.962-3.897
			c2.051-0.582,3.916-1.067,5.665-1.502c1.759,1.22,8.909,6.053,13.003,6.823c3.996,0.751,9.295,0.597,12.479-2.297
			c3.119-2.835,3.569-7.797,0.303-10.732c-4.535-4.075-15.236-1.549-19.941,1.188c-0.405,0.238-6.339,4.669-6.249,4.734
			c0,0,0.086,0.059,0.106,0.073c-1.692,0.385-3.503,0.819-5.47,1.332c-3.627,0.975-7.715,2.111-12.082,3.648
			c-4.368,1.524-9.071,3.303-13.855,5.623c-4.798,2.32-9.728,5.004-14.449,8.427c-0.053,0.039-0.104,0.086-0.157,0.125
			c1.07-1.43,3.927-5.53,4.111-5.87c2.59-4.788,4.78-15.562,0.566-19.967c-3.037-3.173-7.983-2.568-10.718,0.637
			c-2.793,3.274-2.781,8.575-1.906,12.544c0.987,4.479,6.956,12.43,7.434,13.061c-4.466,3.302-8.782,7.052-12.939,11.088
			c-2.38,2.304-4.705,4.7-7.006,7.131c0.885-1.266,1.667-2.405,1.76-2.576c2.59-4.789,4.779-15.563,0.565-19.967
			c-3.036-3.175-7.981-2.569-10.717,0.636c-2.794,3.272-2.782,8.576-1.907,12.545c0.888,4.03,5.841,10.91,7.177,12.714
			c-0.873,0.942-1.755,1.872-2.624,2.818c-4.172,4.535-8.315,9.078-12.515,13.41c-1.479,1.527-2.992,2.977-4.501,4.434
			c0.786-1.126,1.437-2.08,1.522-2.236c2.589-4.788,4.78-15.562,0.565-19.967c-3.036-3.174-7.982-2.568-10.717,0.637
			c-2.794,3.274-2.782,8.575-1.906,12.546c0.847,3.845,5.362,10.238,6.938,12.389c-1.59,1.444-3.18,2.894-4.786,4.222
			c-1.117,0.882-2.131,1.81-3.302,2.632c-1.142,0.84-2.273,1.671-3.394,2.494c-2.214,1.506-4.491,3.074-6.688,4.489
			c-1.521,0.996-2.989,1.917-4.465,2.849c1.49-1.503,4.346-4.507,4.557-4.786c3.286-4.339,7.081-14.657,3.583-19.651
			c-2.521-3.597-7.501-3.748-10.69-0.993c-3.257,2.812-4.049,8.054-3.786,12.111c0.292,4.467,4.763,12.909,5.329,13.96
			C540.276,274.634,537.881,276.103,535.598,277.452z"/>
		<path style="fill:#cce4ff;" d="M669.017,284.751c-0.022,0.109,7.341-0.697,7.799-0.8c5.308-1.206,14.857-6.657,15.395-12.73
			c0.388-4.374-3.326-7.696-7.54-7.642c-4.302,0.054-8.283,3.555-10.693,6.83C671.146,274.253,669.019,284.743,669.017,284.751z"/>
	</g>
</g>
<g id="Chronometer">
	<g>
		<g>
			
				<rect x="242.6" y="101.775" transform="matrix(0.7873 -0.6165 0.6165 0.7873 -19.1863 181.4425)" style="fill:#263238;stroke:#263238;stroke-linejoin:round;stroke-miterlimit:10;" width="21.622" height="33.515"/>
			
				<rect x="224.701" y="93.446" transform="matrix(0.7873 -0.6165 0.6165 0.7873 -13.2493 172.2666)" style="fill:#92E3A9;stroke:#263238;stroke-linejoin:round;stroke-miterlimit:10;" width="36.758" height="23.785"/>
			
				<line style="fill:none;stroke:#263238;stroke-linejoin:round;stroke-miterlimit:10;" x1="227.531" y1="103.321" x2="238.278" y2="117.045"/>
			
				<line style="fill:none;stroke:#263238;stroke-linejoin:round;stroke-miterlimit:10;" x1="237.334" y1="95.645" x2="248.081" y2="109.369"/>
			
				<line style="fill:none;stroke:#263238;stroke-linejoin:round;stroke-miterlimit:10;" x1="234.664" y1="103.007" x2="245.411" y2="116.731"/>
		</g>
		<g>
			
				<rect x="480.489" y="101.775" transform="matrix(-0.7873 -0.6165 0.6165 -0.7873 805.0392 514.7558)" style="fill:#263238;stroke:#263238;stroke-linejoin:round;stroke-miterlimit:10;" width="21.622" height="33.515"/>
			
				<rect x="483.252" y="93.446" transform="matrix(-0.7873 -0.6165 0.6165 -0.7873 831.6398 497.5433)" style="fill:#92E3A9;stroke:#263238;stroke-linejoin:round;stroke-miterlimit:10;" width="36.758" height="23.785"/>
			
				<line style="fill:none;stroke:#263238;stroke-linejoin:round;stroke-miterlimit:10;" x1="517.18" y1="103.321" x2="506.434" y2="117.045"/>
			
				<line style="fill:none;stroke:#263238;stroke-linejoin:round;stroke-miterlimit:10;" x1="507.378" y1="95.645" x2="496.631" y2="109.369"/>
			
				<line style="fill:none;stroke:#263238;stroke-linejoin:round;stroke-miterlimit:10;" x1="510.047" y1="103.007" x2="499.3" y2="116.731"/>
		</g>
		<g>
			
				<rect x="353.519" y="52.331" style="fill:#263238;stroke:#263238;stroke-linejoin:round;stroke-miterlimit:10;" width="35.06" height="35.11"/>
			<g>
				
					<rect x="345.681" y="32.188" style="fill:#92E3A9;stroke:#263238;stroke-linejoin:round;stroke-miterlimit:10;" width="50.735" height="35.11"/>
				
					<line style="fill:none;stroke:#263238;stroke-linejoin:round;stroke-miterlimit:10;" x1="350.241" y1="32.072" x2="350.241" y2="61.334"/>
				
					<line style="fill:none;stroke:#263238;stroke-linejoin:round;stroke-miterlimit:10;" x1="354.422" y1="62.64" x2="354.422" y2="46.964"/>
				
					<line style="fill:none;stroke:#263238;stroke-linejoin:round;stroke-miterlimit:10;" x1="358.863" y1="32.856" x2="358.863" y2="55.063"/>
				
					<line style="fill:none;stroke:#263238;stroke-linejoin:round;stroke-miterlimit:10;" x1="363.305" y1="43.568" x2="363.305" y2="63.947"/>
				
					<line style="fill:none;stroke:#263238;stroke-linejoin:round;stroke-miterlimit:10;" x1="370.098" y1="33.117" x2="370.098" y2="56.109"/>
			</g>
		</g>
		
			<ellipse transform="matrix(0.7071 -0.7071 0.7071 0.7071 -78.4957 339.9008)" style="fill:#263238;stroke:#263238;stroke-linejoin:round;stroke-miterlimit:10;" cx="371.049" cy="264.703" rx="183.41" ry="183.41"/>
		
			<ellipse transform="matrix(0.7071 -0.7071 0.7071 0.7071 -78.4957 339.9008)" style="fill:#FFFFFF;stroke:#263238;stroke-linejoin:round;stroke-miterlimit:10;" cx="371.049" cy="264.703" rx="161.909" ry="161.909"/>
		<g>
			
				<ellipse transform="matrix(0.7071 -0.7071 0.7071 0.7071 -78.4957 339.9008)" style="fill:#FFFFFF;stroke:#263238;stroke-linejoin:round;stroke-miterlimit:10;" cx="371.049" cy="264.703" rx="149.221" ry="149.221"/>
			<g>
				
					<line style="fill:none;stroke:#263238;stroke-linejoin:round;stroke-miterlimit:10;" x1="371.049" y1="115.482" x2="371.049" y2="135.714"/>
				
					<line style="fill:none;stroke:#263238;stroke-linejoin:round;stroke-miterlimit:10;" x1="371.049" y1="393.542" x2="371.049" y2="413.774"/>
			</g>
			<g>
				
					<line style="fill:none;stroke:#263238;stroke-linejoin:round;stroke-miterlimit:10;" x1="520.195" y1="264.628" x2="499.963" y2="264.628"/>
				
					<line style="fill:none;stroke:#263238;stroke-linejoin:round;stroke-miterlimit:10;" x1="242.135" y1="264.628" x2="221.903" y2="264.628"/>
			</g>
			<g>
				
					<line style="fill:none;stroke:#263238;stroke-linejoin:round;stroke-miterlimit:10;" x1="476.511" y1="159.166" x2="462.205" y2="173.472"/>
				
					<line style="fill:none;stroke:#263238;stroke-linejoin:round;stroke-miterlimit:10;" x1="279.893" y1="355.784" x2="265.587" y2="370.09"/>
			</g>
			<g>
				
					<line style="fill:none;stroke:#263238;stroke-linejoin:round;stroke-miterlimit:10;" x1="265.587" y1="159.166" x2="279.893" y2="173.472"/>
				
					<line style="fill:none;stroke:#263238;stroke-linejoin:round;stroke-miterlimit:10;" x1="462.205" y1="355.784" x2="476.511" y2="370.09"/>
			</g>
		</g>
		<polygon style="fill:#263238;stroke:#263238;stroke-linejoin:round;stroke-miterlimit:10;" points="407.855,250.421 
			410.194,259.314 257.693,296.091 256.991,293.423 		"/>
		<path style="fill:#FFFFFF;stroke:#263238;stroke-linejoin:round;stroke-miterlimit:10;" d="M376.898,264.703
			c0-3.231-2.619-5.85-5.85-5.85c-3.231,0-5.85,2.619-5.85,5.85c0,3.231,2.619,5.85,5.85,5.85
			C374.279,270.553,376.898,267.934,376.898,264.703z"/>
	</g>
</g>
<g id="Character">
	<g>
		<path style="fill:#263238;stroke:#263238;stroke-linejoin:round;stroke-miterlimit:10;" d="M314.858,375.577l-9.144-6.035
			c0,0-5.669,5.487-6.035,6.035c-0.366,0.549-15.911,2.378-19.02,2.378c-3.109,0-5.304-0.732-5.669,0.732
			c-0.366,1.463,4.389,4.755,11.339,6.584c2.744,0.722,6.742,2.157,10.678,3.573l-0.619,1.548c0,0,10.424,3.841,12.07,4.023
			c0.565,0.063,1.107-0.788,1.577-1.922C311.713,390.946,314.858,375.577,314.858,375.577z"/>
		<path style="fill:#263238;stroke:#263238;stroke-linejoin:round;stroke-miterlimit:10;" d="M469.805,297.317l2.236,10.726
			c0,0,7.889,0.102,8.535-0.03c0.646-0.132,12.965,9.524,15.171,11.715c2.206,2.191,3.248,4.256,4.538,3.476
			c1.29-0.78,0.236-6.467-3.407-12.661c-1.438-2.446-3.264-6.281-5.059-10.059l1.53-0.662c0,0-4.691-10.071-5.73-11.36
			c-0.357-0.443-1.341-0.221-2.473,0.252C482.866,288.627,469.805,297.317,469.805,297.317z"/>
		<g>
			<path style="fill:#263238;stroke:#263238;stroke-linejoin:round;stroke-miterlimit:10;" d="M362.989,268.749
				c0,0-2.926,1.829-2.56,2.926c0.366,1.097,2.743,2.926,2.743,2.926s-38.658,33.326-39.389,35.887
				c-0.731,2.56-24.104,59.053-24.104,59.053l17.922,8.961l23.921-56.859l40.669-26.011c0,0,29.398,41.82,32.324,41.454
				c2.926-0.366,63.08-28.376,63.08-28.376l-5.852-13.716l-50.826,17.403l-15.864-35.602c0,0,3.841-6.584,1.463-12.985
				c-2.377-6.401-9.327-16.277-9.327-16.277L362.989,268.749z"/>
			<path style="fill:none;stroke:#999999;stroke-linejoin:round;stroke-miterlimit:10;" d="M382.192,295.633
				c0,0,19.478-11.666,21.124-13.312"/>
			<path style="fill:none;stroke:#999999;stroke-linejoin:round;stroke-miterlimit:10;" d="M371.56,268.566
				c2.617-2.23,5.448-4.51,7.157-5.487c3.841-2.195,12.619-1.829,12.619-1.829"/>
			<path style="fill:none;stroke:#999999;stroke-linejoin:round;stroke-miterlimit:10;" d="M365.366,274.053
				c0,0,1.306-1.206,3.146-2.835"/>
			<path style="fill:none;stroke:#999999;stroke-linejoin:round;stroke-miterlimit:10;" d="M395.542,259.239
				c0,0-7.315-0.914-12.985,0.549"/>
			<path style="fill:none;stroke:#999999;stroke-linejoin:round;stroke-miterlimit:10;" d="M386.764,293.804
				c0,0,15.179,2.743,20.117,2.378"/>
			<path style="fill:none;stroke:#999999;stroke-linejoin:round;stroke-miterlimit:10;" d="M405.221,305.55
				c1.175,0.347,2.345,0.645,3.489,0.873"/>
			<path style="fill:none;stroke:#999999;stroke-linejoin:round;stroke-miterlimit:10;" d="M386.581,297.096
				c0,0,7.392,4.48,15.426,7.392"/>
		</g>
		<polygon style="fill:#263238;stroke:#263238;stroke-linejoin:round;stroke-miterlimit:10;" points="360.063,265.457 
			362.989,268.749 397.188,247.535 394.994,245.34 		"/>
		<polygon style="fill:#FFFFFF;stroke:#263238;stroke-linejoin:round;stroke-miterlimit:10;" points="409.813,223.098 
			412.948,227.331 420.63,224.666 419.062,220.903 		"/>
		<g>
			<path style="fill:#FFFFFF;stroke:#263238;stroke-linejoin:round;stroke-miterlimit:10;" d="M328.973,192.264
				c0,0-15.217,0.217-23.043,0c-7.826-0.217-29.564-4.565-31.303-1.304c-1.739,3.261,1.956,12.174,12.608,15.652
				c10.652,3.478,33.912,6.739,33.912,6.739s9.565,11.956,15,19.13s15.434,23.695,16.304,25.217c0.869,1.522,4.783,10.869,10,8.913
				c5.217-1.956,33.694-19.565,33.694-20.869c0-1.304,0-3.043-0.87-4.13c-0.869-1.087-11.087-13.695-12.826-16.956
				c-1.739-3.261-8.043-19.347-8.043-19.347l13.695-3.261c0,0,16.086,17.826,19.13,20.652s5.652,1.739,5.652,1.739
				s7.174-1.304,7.391-3.478c0.217-2.174-23.912-39.129-26.303-40.433c-2.391-1.304-18.478,4.13-24.999,5.217
				c-6.521,1.087-14.347,1.522-23.477,3.695C336.364,191.612,328.973,192.264,328.973,192.264z"/>
			
				<line style="fill:#FFFFFF;stroke:#263238;stroke-linejoin:round;stroke-miterlimit:10;" x1="374.406" y1="205.307" x2="352.668" y2="211.394"/>
			
				<line style="fill:none;stroke:#263238;stroke-linejoin:round;stroke-miterlimit:10;" x1="364.624" y1="208.133" x2="357.016" y2="214.22"/>
			
				<line style="fill:none;stroke:#263238;stroke-linejoin:round;stroke-miterlimit:10;" x1="302.675" y1="204.854" x2="299.409" y2="203.351"/>
			<polyline style="fill:none;stroke:#263238;stroke-linejoin:round;stroke-miterlimit:10;" points="305.93,202.916 321.147,213.35 
				305.055,205.948 			"/>
			<path style="fill:none;stroke:#263238;stroke-linejoin:round;stroke-miterlimit:10;" d="M357.768,236.476
				c7.649,1.595,20.956,3.932,32.259,3.681"/>
			<path style="fill:none;stroke:#263238;stroke-linejoin:round;stroke-miterlimit:10;" d="M351.496,235.057
				c0,0,1.313,0.334,3.547,0.831"/>
			<path style="fill:none;stroke:#263238;stroke-linejoin:round;stroke-miterlimit:10;" d="M375.105,236.946
				c0,0,9.066,1.889,15.11,1.889"/>
		</g>
		<polygon style="fill:#92E3A9;stroke:#263238;stroke-linejoin:round;stroke-miterlimit:10;" points="328.724,203.735 
			332.011,214.748 336.285,203.406 		"/>
		<g>
			<polygon style="fill:#FFFFFF;stroke:#263238;stroke-linejoin:round;stroke-miterlimit:10;" points="329.712,195.435 
				325.374,200.222 332.853,206.205 337.042,198.726 			"/>
			<polygon style="fill:#FFFFFF;stroke:#263238;stroke-linejoin:round;stroke-miterlimit:10;" points="325.374,200.222 
				327.468,209.047 330.46,204.26 			"/>
			<path style="fill:#FFFFFF;stroke:#263238;stroke-miterlimit:10;" d="M311.463,161.63c0,0-2.992,7.33-2.842,9.274
				s1.645,3.141,1.496,5.385c-0.15,2.244-4.787,6.432-3.739,7.479c1.047,1.047,4.936,2.693,4.936,2.693s4.188,8.676,5.684,8.975
				c1.496,0.299,9.573-3.74,9.573-3.74l6.282,14.51l12.415-18.399l-4.188-8.227c0,0,3.59-9.274,0.15-16.903
				c-3.44-7.629-14.36-8.077-19.595-7.18C316.399,156.394,312.51,158.638,311.463,161.63z"/>
			<path style="fill:#263238;stroke:#263238;stroke-miterlimit:10;" d="M321.485,159.984c0,0-3.291-1.047-7.03,1.645
				c-3.74,2.693-6.881,5.684-8.377,2.992c-1.496-2.693,3.141-7.18,3.141-7.18s-3.74-1.047-2.244-5.385
				c1.496-4.338,7.03-5.235,7.03-3.74c0,1.496-0.449,2.692,3.74,0.598c4.188-2.094,6.432-2.693,7.329-0.299
				c0.897,2.393,6.282,1.047,12.415,4.488c6.133,3.44,7.629,5.684,6.282,13.462c-1.346,7.778-1.645,11.518-2.693,13.014
				c-1.047,1.496-4.787,1.945-6.432,1.346c-1.645-0.598-0.748-2.244-0.748-2.244s4.338-4.338,2.393-7.778
				c-1.945-3.44-4.787-1.945-5.684,0c-0.897,1.945-0.449,3.59-1.795,3.59c-1.346,0-2.543-1.047-2.842-3.141
				c-0.299-2.094-1.346-4.039-2.244-4.338c-0.897-0.299-3.141,1.645-2.992-1.795c0.15-3.44,2.094-5.385,2.094-5.385L321.485,159.984
				z"/>
			<path style="fill:none;stroke:#263238;stroke-miterlimit:10;" d="M311.465,174.793c0,0-0.206-3.401,3.289-4.039"/>
			<path style="fill:#263238;" d="M315.011,176.266c0.287,0.819,0.203,1.593-0.187,1.73c-0.39,0.137-0.938-0.416-1.225-1.235
				c-0.287-0.819-0.203-1.593,0.187-1.729C314.176,174.894,314.724,175.447,315.011,176.266z"/>
		</g>
		<polygon style="fill:#FFFFFF;stroke:#263238;stroke-linejoin:round;stroke-miterlimit:10;" points="344.969,183.02 
			331.956,199.623 334.349,208.449 349.607,187.208 		"/>
		<path style="fill:#92E3A9;stroke:#263238;stroke-linejoin:round;stroke-miterlimit:10;" d="M332.011,214.748
			c0,0,0.657,2.466,3.287,2.959c2.63,0.493,7.232-1.479,9.534-7.397s7.068-22.19,9.862-26.135
			c2.794-3.945,11.999-4.109,16.766-3.781c4.767,0.329,8.054-4.274,12.492-6.411c4.438-2.137,8.219-2.63,8.219-2.63l5.589-11.342
			l-11.67-0.329c0,0-11.506,5.424-14.465,8.876c-2.959,3.452-5.095,2.959-11.342,4.274c-6.246,1.315-9.698,3.945-12.164,11.506
			c-2.465,7.561-5.753,26.628-9.369,29.258C335.134,216.227,332.011,214.748,332.011,214.748z"/>
		<path style="fill:#FFFFFF;stroke:#263238;stroke-linejoin:round;stroke-miterlimit:10;" d="M291.585,202.365
			c1.355,1.402,1.552,3.409,0.44,4.483c-1.112,1.075-3.111,0.809-4.466-0.592c-1.355-1.402-1.552-3.409-0.44-4.483
			C288.231,200.698,290.231,200.963,291.585,202.365z"/>
		<path style="fill:#FFFFFF;stroke:#263238;stroke-linejoin:round;stroke-miterlimit:10;" d="M290.517,205.092l-2.163-2.298
			c0,0-4.462-11.628-10.411-14.738c-5.949-3.11-13.115,1.622-14.602,6.084c-1.487,4.462,3.786,11.898,9.329,14.197
			c5.544,2.299,13.656,4.056,13.656,4.056S288.895,206.309,290.517,205.092z"/>
		<path style="fill:#263238;stroke:#263238;stroke-linejoin:round;stroke-miterlimit:10;" d="M282.811,211.311l0.231,0.296
			c1.947,0.494,3.285,0.786,3.285,0.786s2.569-6.084,4.191-7.301l-2.163-2.298C288.354,202.793,282.135,203.875,282.811,211.311z"/>
		<path style="fill:#FFFFFF;stroke:#263238;stroke-linejoin:round;stroke-miterlimit:10;" d="M304.173,223.074
			c0,0,1.622,2.298,2.704,3.11c1.082,0.811,1.487,1.758,0.135,1.622c-1.352-0.135-2.974-0.406-4.327-1.893
			c-1.352-1.487-2.298-2.704-2.298-2.704L304.173,223.074z"/>
		<path style="fill:#FFFFFF;stroke:#263238;stroke-linejoin:round;stroke-miterlimit:10;" d="M304.849,219.018
			c0,0,1.893,3.11,1.217,3.921c-0.676,0.811-6.896,1.082-7.842,0.811c-0.946-0.27-0.27-1.487-0.27-1.487L304.849,219.018z"/>
		<path style="fill:#FFFFFF;stroke:#263238;stroke-linejoin:round;stroke-miterlimit:10;" d="M304.714,215.367
			c0,0,1.487,2.298,1.217,3.245c-0.27,0.946-6.625,3.786-7.977,3.651c-1.352-0.135-1.217-1.217-1.217-1.217L304.714,215.367z"/>
		<path style="fill:#FFFFFF;stroke:#263238;stroke-linejoin:round;stroke-miterlimit:10;" d="M302.145,212.663
			c0,0,2.434-0.27,2.704,1.487c0.27,1.758-1.217,2.299-2.163,3.11c-0.947,0.811-5.003,3.786-5.949,3.786
			c-0.947,0-2.704-2.704-2.704-2.704L302.145,212.663z"/>
		<g>
			<path style="fill:#FFFFFF;stroke:#263238;stroke-linejoin:round;stroke-miterlimit:10;" d="M290.517,205.092
				c0,0,6.625,2.434,9.735,3.245c3.11,0.811,3.245,3.38,1.893,4.327c-1.352,0.947-5.543,6.084-6.76,6.355
				c-1.217,0.27-2.975-1.082-2.975-1.082s-3.786-1.893-4.327-3.38c-0.541-1.487-1.758-2.163-1.758-2.163
				S285.921,206.849,290.517,205.092z"/>
			<path style="fill:none;stroke:#263238;stroke-linejoin:round;stroke-miterlimit:10;" d="M292.41,217.936
				c0,0-1.082-2.569-0.135-3.245c0.947-0.676,2.434,0.811,2.434,0.811s0.541-1.758,1.082-2.163"/>
		</g>
		<g>
			<path style="fill:#FFFFFF;stroke:#263238;stroke-linejoin:round;stroke-miterlimit:10;" d="M412.948,227.331
				c0,0,0.786,4.507,0.673,5.874c-0.114,1.367-2.506,7.061-2.62,7.403c-0.114,0.342,0.797,1.708,1.139,2.164
				c0.342,0.456,1.936,0.228,3.189,1.253c1.253,1.025,2.734,3.531,4.556,2.961c1.822-0.569,2.961-2.961,2.961-2.961
				s4.214-2.506,4.328-3.759c0.114-1.253-0.228-3.531-0.57-4.556c-0.342-1.025-5.975-11.044-5.975-11.044L412.948,227.331z"/>
			<path style="fill:none;stroke:#263238;stroke-linejoin:round;stroke-miterlimit:10;" d="M414.19,239.582
				c0,0,2.164,0.342,3.075,3.645"/>
		</g>
		
			<polyline style="fill:none;stroke:#263238;stroke-width:3;stroke-linecap:round;stroke-linejoin:round;stroke-miterlimit:10;" points="
			415.329,241.291 410.432,243.796 414.988,252.339 		"/>
		<polyline style="fill:none;stroke:#263238;stroke-width:3;stroke-linejoin:round;stroke-miterlimit:10;" points="427.288,237.191 
			428.655,236.621 433.211,245.733 		"/>
		<path style="fill:#92E3A9;stroke:#263238;stroke-linejoin:round;stroke-miterlimit:10;" d="M466.328,272.966l-49,21.869
			c-1.913,0.854-4.156-0.005-5.01-1.918l-13.15-29.464c-0.854-1.913,0.005-4.156,1.918-5.01l49.001-21.869
			c1.913-0.854,4.156,0.005,5.01,1.918l13.15,29.464C469.1,269.869,468.241,272.112,466.328,272.966z"/>
	</g>
</g>
</svg>
